<svg xmlns="http://www.w3.org/2000/svg" width="149" height="21" fill="none" viewBox="0 0 149 21"><path fill="#14142B" d="M17.94 11.479q0 1.005-.499 1.894-.498.889-1.494 1.553t-2.49 1.054q-1.484.381-3.477.381t-3.496-.38q-1.494-.391-2.49-1.055T2.5 13.373a3.8 3.8 0 0 1-.498-1.894V2.582h3.613v7.598q0 .673.166 1.279.175.595.645 1.045.478.45 1.328.713.86.264 2.226.263 1.358 0 2.207-.263.85-.264 1.319-.713.479-.45.644-1.045.166-.605.166-1.28V2.583h3.623v8.896zM29.663 16H26.04V2.582h9.082q1.465 0 2.48.303 1.026.303 1.66.86.646.556.928 1.347.293.78.293 1.748 0 .85-.244 1.484-.234.635-.644 1.094-.4.45-.938.762t-1.133.517L41.92 16h-4.238l-4.063-4.941h-3.955V16zm7.158-9.18q0-.39-.107-.664a.86.86 0 0 0-.352-.44q-.254-.175-.683-.253a6 6 0 0 0-1.055-.078h-4.96v2.87h4.96q.635 0 1.055-.077.43-.078.683-.244a.9.9 0 0 0 .352-.45 1.8 1.8 0 0 0 .107-.664M48.518 16V2.582h3.623v10.479h9.794V16zm32.691-9.639a13 13 0 0 0-1.006-.42 14 14 0 0 0-1.416-.439q-.79-.214-1.719-.352a12 12 0 0 0-1.904-.146q-.78 0-1.338.049a8 8 0 0 0-.928.127 2.7 2.7 0 0 0-.595.185 1.3 1.3 0 0 0-.332.205.6.6 0 0 0-.157.215.7.7 0 0 0-.029.195q0 .293.293.518.293.215.8.39.509.167 1.183.323l1.425.312q.762.157 1.563.352.81.186 1.562.44.762.253 1.436.595.674.333 1.181.781.51.45.801 1.036.293.585.293 1.338 0 .966-.341 1.66a3.5 3.5 0 0 1-.918 1.171 4.6 4.6 0 0 1-1.319.772 9.5 9.5 0 0 1-1.582.44q-.82.156-1.67.204-.84.05-1.601.05a19 19 0 0 1-3.692-.333q-1.689-.322-2.988-.81v-3.203q1.338.741 3.047 1.162 1.719.42 3.672.42 1.152 0 1.875-.118.732-.126 1.142-.312.411-.195.557-.42a.8.8 0 0 0 .146-.43q0-.322-.293-.556-.293-.245-.8-.42a9 9 0 0 0-1.182-.332q-.674-.156-1.436-.303-.75-.156-1.552-.332a20 20 0 0 1-1.563-.41 13 13 0 0 1-1.426-.557 5.5 5.5 0 0 1-1.181-.752 3.4 3.4 0 0 1-.801-1.006q-.293-.575-.293-1.328 0-.888.313-1.533.312-.644.84-1.094a4.5 4.5 0 0 1 1.23-.742 8.5 8.5 0 0 1 1.475-.44 13 13 0 0 1 1.562-.214q.791-.06 1.504-.059.781 0 1.601.078.83.078 1.631.225a21 21 0 0 1 1.543.322q.753.186 1.387.39zM89.759 16V2.582h3.624v10.479h9.795V16H89.76zm31.11-2.54h-7.48l-1.26 2.54h-4.043l7.021-13.418h4.043L126.172 16h-4.043zm-6.181-2.616h4.902l-2.442-4.942zm32.984 1.455q0 .78-.205 1.357a3 3 0 0 1-.576.996 2.9 2.9 0 0 1-.879.674q-.508.255-1.133.41a9 9 0 0 1-1.318.205q-.703.06-1.456.059h-9.736V2.582h9.561q.576 0 1.152.049.587.048 1.113.185.527.127.977.362.46.234.791.615.342.381.527.918.195.537.196 1.27 0 1.308-.645 2.08-.645.761-2.031 1.015.976.069 1.67.303.702.225 1.142.625.44.39.645.967.205.566.205 1.328m-4.522-5.742q0-.255-.078-.479a.9.9 0 0 0-.283-.41 1.5 1.5 0 0 0-.557-.283q-.35-.108-.898-.108h-5.342v2.52h5.342q.547 0 .898-.098.352-.098.557-.263a.86.86 0 0 0 .283-.391q.078-.235.078-.488m.84 5.322q0-.459-.156-.732a1 1 0 0 0-.488-.43q-.333-.156-.86-.205-.527-.05-1.259-.05h-5.235v2.843h5.235q.732 0 1.259-.05.528-.048.86-.204t.488-.43q.156-.283.156-.742"/></svg>