<svg xmlns="http://www.w3.org/2000/svg" xml:space="preserve" style="fill-rule:evenodd;clip-rule:evenodd;stroke-linejoin:round;stroke-miterlimit:2" viewBox="0 0 20 20"><path d="M6.687 3.536a7 7 0 0 0-.626.364l-1.57-.632-.018-.007a1.42 1.42 0 0 0-1.729.604l-1.677 2.9a1.426 1.426 0 0 0 .313 1.799l1.363 1.071a6 6 0 0 0-.011.364l.017.372-1.339 1.051-.02.017a1.42 1.42 0 0 0-.323 1.81l1.67 2.888.006.01a1.42 1.42 0 0 0 1.729.603l1.586-.638q.305.2.629.368l.235 1.672q.004.032.011.062a1.43 1.43 0 0 0 1.379 1.145h3.38a1.434 1.434 0 0 0 1.381-1.185l.241-1.71q.322-.166.626-.364l1.57.632.019.007a1.42 1.42 0 0 0 1.728-.604l1.676-2.9a1.42 1.42 0 0 0-.323-1.808l-1.356-1.063q.01-.179.011-.358l-.016-.375 1.342-1.053.02-.017a1.42 1.42 0 0 0 .322-1.81l-1.669-2.888-.006-.011a1.426 1.426 0 0 0-1.729-.602l-1.586.638a7 7 0 0 0-.629-.368l-.235-1.672-.011-.063a1.434 1.434 0 0 0-1.38-1.144h-3.38a1.43 1.43 0 0 0-.903.345 1.44 1.44 0 0 0-.478.841zm2.145-.896 2.339.001.19 1.356a1.63 1.63 0 0 0 .912 1.238q.36.175.695.408l.002.002a1.63 1.63 0 0 0 1.535.173l1.281-.516 1.166 2.019-1.091.856c-.213.168-.38.387-.487.636l-.001.001c-.107.249-.15.521-.125.791l.018.392a5 5 0 0 1-.05.675 1 1 0 0 0 .373.927l1.362 1.069-1.167 2.018-1.281-.516-.004-.001a1.62 1.62 0 0 0-1.534.177 5 5 0 0 1-.705.41l-.002.001a1.63 1.63 0 0 0-.897 1.236l-.192 1.367-2.339-.001-.191-1.357a1.6 1.6 0 0 0-.3-.733 1.65 1.65 0 0 0-.612-.505 5 5 0 0 1-.694-.407l-.002-.001a1.62 1.62 0 0 0-1.535-.174l-1.281.516-1.167-2.019 1.094-.859a1.62 1.62 0 0 0 .608-1.427 5 5 0 0 1-.018-.394l.019-.398a1.63 1.63 0 0 0-.616-1.416l-1.086-.852 1.167-2.019 1.281.516.004.001a1.63 1.63 0 0 0 1.534-.177q.334-.23.706-.41l.001-.001c.24-.116.447-.29.604-.505v-.001c.156-.215.257-.466.294-.73zm1.514 3.877h-.002a3.5 3.5 0 0 0-3.507 1.986 3.5 3.5 0 0 0 .688 3.972 3.502 3.502 0 0 0 5.521-.75v-.001a3.5 3.5 0 0 0 .437-2.068v-.002a3.506 3.506 0 0 0-3.137-3.137m-.199 1.99a1.51 1.51 0 0 1 1.346 1.346 1.5 1.5 0 0 1-.851 1.503 1.5 1.5 0 0 1-2.12-1.1 1.5 1.5 0 0 1 .122-.897v-.001a1.5 1.5 0 0 1 1.503-.851"/></svg>