<svg xmlns="http://www.w3.org/2000/svg" width="139" height="34" fill="none" viewBox="0 0 139 34"><path fill="#050505" d="M49.92 24.108q-1.71 0-3.024-.702a5.24 5.24 0 0 1-2.034-1.926q-.738-1.242-.738-2.79v-7.308h2.718v7.182q0 .882.396 1.584.414.702 1.098 1.116.702.414 1.584.414.9 0 1.602-.414.72-.414 1.134-1.116t.414-1.584v-7.182h2.628v7.308q0 1.548-.738 2.79a5.2 5.2 0 0 1-2.052 1.926q-1.296.702-2.988.702M60.07 24V11.4h6.264q1.26 0 2.232.522.99.504 1.53 1.422.558.9.558 2.052t-.576 2.088a4.2 4.2 0 0 1-1.584 1.494 4.5 4.5 0 0 1-2.196.54H62.68V24zm8.046 0-3.636-5.688 2.808-.45 3.996 6.156zm-5.436-6.678h3.42q.54 0 .954-.234t.648-.648.234-.936-.27-.918a1.65 1.65 0 0 0-.72-.612q-.45-.234-1.062-.234H62.68zM74.941 24V11.4h2.7v10.17h6.714V24zm16.643.18q-1.53 0-2.736-.432-1.206-.45-1.962-1.296l1.602-1.404q.594.612 1.422.918t1.764.306q.324 0 .63-.054.324-.054.558-.162a1.2 1.2 0 0 0 .378-.306.64.64 0 0 0 .144-.414q0-.396-.486-.63a10 10 0 0 0-.792-.234 13 13 0 0 0-1.062-.234 14 14 0 0 1-1.764-.486q-.756-.27-1.26-.666a2.8 2.8 0 0 1-.612-.846 2.55 2.55 0 0 1-.216-1.08q0-.648.324-1.188t.918-.9a4.7 4.7 0 0 1 1.35-.576 6 6 0 0 1 1.638-.216q.828 0 1.62.18.81.162 1.53.486t1.242.81l-1.332 1.548a5.2 5.2 0 0 0-.918-.558 5 5 0 0 0-1.098-.414 4 4 0 0 0-1.098-.162q-.324 0-.648.054a1.8 1.8 0 0 0-.54.144 1.1 1.1 0 0 0-.378.27.63.63 0 0 0-.126.396q0 .198.09.36a1 1 0 0 0 .288.252q.27.18.774.324.504.126 1.242.288 1.044.216 1.8.504.774.27 1.242.684.378.288.576.72.198.414.198.936a2.48 2.48 0 0 1-.576 1.62q-.558.684-1.53 1.08-.954.378-2.196.378m7.668-.18V11.4h2.7v10.17h6.714V24zm16.523.18q-1.404 0-2.484-.63a4.64 4.64 0 0 1-1.674-1.764q-.594-1.116-.594-2.574 0-1.44.612-2.538.63-1.116 1.71-1.746 1.098-.648 2.52-.648.828 0 1.53.216a4.2 4.2 0 0 1 1.224.594q.522.36.846.81.342.432.432.918l-.576-.018v-2.322h2.52V24h-2.556v-2.43l.54.054a2.4 2.4 0 0 1-.45.918 3.8 3.8 0 0 1-.9.828 5.2 5.2 0 0 1-1.242.594 4.8 4.8 0 0 1-1.458.216m.684-2.214q.864 0 1.512-.342a2.47 2.47 0 0 0 1.026-.954q.36-.63.36-1.458 0-.792-.36-1.404a2.6 2.6 0 0 0-1.026-.972q-.648-.36-1.512-.36t-1.512.36-1.026.972q-.36.612-.36 1.404 0 .828.36 1.458a2.6 2.6 0 0 0 1.026.954q.648.342 1.512.342m15.732 2.214a5.2 5.2 0 0 1-1.458-.198 5.5 5.5 0 0 1-1.242-.522q-.54-.342-.9-.756-.342-.432-.45-.828l.72-.144-.108 2.232h-2.412V10.68h2.556v6.03l-.648-.126q.126-.414.468-.828t.864-.738q.54-.342 1.206-.54a4.9 4.9 0 0 1 1.404-.198q1.386 0 2.466.648a4.56 4.56 0 0 1 1.728 1.746q.63 1.116.63 2.556t-.63 2.556a4.56 4.56 0 0 1-1.71 1.764q-1.098.63-2.484.63m-.54-2.196q.864 0 1.512-.342.648-.36 1.008-.972.36-.63.36-1.44t-.36-1.44a2.46 2.46 0 0 0-1.008-.972q-.648-.342-1.512-.342-.882 0-1.53.342a2.6 2.6 0 0 0-1.026.972q-.36.63-.36 1.44t.36 1.44q.378.612 1.026.972.648.342 1.53.342"/><g clip-path="url(#a)"><path fill="#3D4148" d="M0 8a8 8 0 0 1 8-8h13c7.18 0 13 5.82 13 13v13a8 8 0 0 1-8 8H13C5.82 34 0 28.18 0 21z"/><path fill="#fff" d="M22.828 22.318A5.834 5.834 0 0 1 17 28.146a5.834 5.834 0 0 1-5.374-8.093 5.8 5.8 0 0 1 1.305-1.907 1.02 1.02 0 0 1 1.424 1.46 3.787 3.787 0 1 0 5.29 0 1.02 1.02 0 0 1 1.424-1.46 5.78 5.78 0 0 1 1.759 4.172m-4.808-1.583v-7.469a1.02 1.02 0 0 0-2.04 0v7.469a1.02 1.02 0 1 0 2.04 0m5.71-12.33a1.02 1.02 0 0 0-.885-.51H11.154a1.02 1.02 0 0 0-.884 1.53l2.49 4.311a1.02 1.02 0 1 0 1.767-1.02L12.92 9.935h8.16l-1.607 2.781a1.02 1.02 0 0 0 1.768 1.02l2.49-4.311a1.02 1.02 0 0 0-.002-1.02"/></g><defs><clipPath id="a"><path fill="#fff" d="M0 0h34v34H0z"/></clipPath></defs></svg>