<svg xmlns="http://www.w3.org/2000/svg"><symbol id="icon-activate" viewBox="0 0 48 48"><g id="Artboard1" transform="matrix(0.696791,0,0,0.696791,-309.021,-308.227)"><g transform="matrix(0.136681,-2.09317e-16,-2.09317e-16,-0.136681,-193.058,542.406)"><g transform="matrix(0.0939423,0,0,0.0939423,4656.68,227.41)"><path d="M2483,5370C2466,5367 2407,5360 2352,5354C2124,5328 1849,5253 1617,5154C1001,4889 487,4375 222,3759C125,3533 55,3277 19,3024C1,2893 1,2483 19,2352C105,1741 365,1211 788,788C1095,481 1456,260 1872,127C2153,38 2368,5 2688,5C3008,5 3223,38 3504,127C4092,315 4576,681 4924,1198C5154,1540 5296,1921 5357,2352C5375,2483 5375,2893 5357,3024C5271,3635 5011,4165 4588,4588C4174,5002 3654,5262 3061,5351C2961,5366 2551,5379 2483,5370ZM3024,4930C3510,4855 3940,4638 4289,4289C4641,3937 4854,3513 4931,3014C4944,2929 4950,2832 4950,2688C4950,2544 4944,2447 4931,2363C4854,1863 4641,1439 4289,1087C3937,735 3513,522 3014,445C2848,419 2528,419 2363,445C1863,522 1439,735 1087,1087C735,1439 522,1863 445,2363C419,2528 419,2848 445,3014C522,3513 735,3937 1087,4289C1476,4678 1931,4888 2515,4950C2599,4958 2917,4946 3024,4930Z"></path></g><g transform="matrix(0.0939423,0,0,0.0939423,4656.68,227.41)"><path d="M3644,3585C3620,3575 3374,3336 2964,2927L2321,2284L2050,2554C1769,2834 1728,2866 1648,2866C1592,2867 1509,2821 1476,2771C1442,2720 1431,2644 1449,2587C1459,2555 1538,2469 1826,2180C2066,1939 2204,1808 2231,1795C2286,1769 2356,1769 2409,1795C2438,1809 2693,2058 3183,2549C3974,3341 3945,3308 3935,3414C3922,3551 3770,3639 3644,3585Z"></path></g></g></g></symbol><symbol id="icon-addTag" viewBox="0 0 18 14"><g transform="matrix(1,0,0,1,-3,-5)"><path d="M21,12L16.65,18.15C16.467,18.417 16.229,18.625 15.938,18.775C15.646,18.925 15.333,19 15,19L5,19C4.45,19 3.979,18.804 3.588,18.413C3.196,18.021 3,17.55 3,17L3,7C3,6.45 3.196,5.979 3.588,5.588C3.979,5.196 4.45,5 5,5L15,5C15.333,5 15.646,5.075 15.938,5.225C16.229,5.375 16.467,5.583 16.65,5.85L21,12Z" style="fill:rgb(101,103,107);fill-rule:nonzero;"></path></g><g transform="matrix(1,0,0,1,-3,-5)"><path d="M11,8.667L11,15.333" style="fill:none;fill-rule:nonzero;stroke:white;stroke-width:1.5px;"></path></g><g transform="matrix(1,0,0,1,-3,-5)"><path d="M7.667,12.001L14.333,12.001" style="fill:none;fill-rule:nonzero;stroke:white;stroke-width:1.5px;"></path></g></symbol><symbol id="icon-adjacent-screen" viewBox="0 0 29 29"><path d="M13,2C13,0.896 12.104,0 11,0L2,0C0.896,0 0,0.896 0,2L0,27C0,28.104 0.896,29 2,29C2,29 11,29 11,29C12.104,29 13,28.104 13,27C13,27 13,2 13,2ZM11,2C11,2 11,27 11,27C11,27 2,27 2,27C2,27 2,2 2,2L11,2Z"></path><path d="M29,2C29,0.896 28.104,0 27,0L18,0C16.896,0 16,0.896 16,2L16,27C16,28.104 16.896,29 18,29C18,29 27,29 27,29C28.104,29 29,28.104 29,27C29,27 29,2 29,2ZM18,2C18,2 27,2 27,2C27,2 27,27 27,27C27,27 18,27 18,27L18,2Z"></path></symbol><symbol id="icon-anchor" viewBox="0 0 32 32"><title>icon-anchor</title><path d="M25.344 25.344h-18.688v-18.688h9.344v-2.656h-9.344c-1.504 0-2.656 1.248-2.656 2.656v18.688c0 1.504 1.152 2.656 2.656 2.656h18.688c1.504 0 2.656-1.152 2.656-2.656v-9.344h-2.656v9.344zM18.656 4v2.656h4.8l-13.152 13.088 1.888 1.856 13.152-13.056v4.8h2.656v-9.344h-9.344z"></path></symbol><symbol id="icon-arrow-left" viewBox="0 0 512 512"><path d="M221.9,477.9l37.5-37.5l-153.6-157H512v-54.6H105.8L259.4,75.1l-37.5-41L0,256L221.9,477.9z"></path></symbol><symbol id="icon-arrow" viewBox="0 0 15 13"><path d="M8.51351 0L7.37027 1.14562L11.8946 5.6875H0V7.3125H11.8946L7.37027 11.8544L8.51351 13L15 6.5L8.51351 0Z"></path></symbol><symbol id="icon-chart" viewBox="0 0 512 512"><g><path d="M507.8,146c-0.2,3.5-1.4,7.3-3.3,10.3c-5.5,8.7-15.6,9.8-23.3,3c-1.9-1.7-3.5-3.6-5.4-5.3
		c-6.7-6.1-13.5-12.3-20.2-18.4c-6.7,6.2-13.7,12.2-20.1,18.6C399.6,190,363.9,225.9,328,261.7c-24.8,24.8-50.1,49.2-74.3,74.7
		c-13.2,13.9-30.8,11.1-41.3,0.1c-24-25-48.8-49.1-73.3-73.6c-5.4-5.4-5.7-5.4-11.1,0.1c-25.3,25.3-50.6,50.6-75.9,75.9
		c-2.2,2.2-4.6,4.5-7.2,6.3c-8.5,6-18,7.4-26.9,1.8c-10.6-6.7-19.9-15.1-17.6-29.5c0.8-4.8,2.7-10.4,6-13.8
		c36.3-36.8,72.9-73.3,109.5-109.8c9-9,22.3-9.8,32.6-2.3c2.3,1.7,4.3,3.7,6.3,5.7c24.5,24.4,49,49,73.5,73.4
		c4.3,4.3,5.1,4.4,9.4,0.1C295.3,213.3,353,155.5,410.8,97.9c3.4-3.4,3.3-5.9-0.1-9.1c-6.5-6.2-12.8-12.7-19.2-19.1
		c-4.7-4.7-7.3-10-4.9-16.7c2.3-6.5,7.3-9.4,13.8-9.9c7.8-0.7,15.7-1.2,23.5-1.6c21.5-1.1,43.1-2.1,64.6-3c4.3-0.2,8.8,0,12.9,1
		c6.8,1.7,10.2,6.5,10.5,13.5c0.2,3.7,0,7.4,0,11C512.1,64,509.5,118.7,507.8,146L507.8,146z"></path><path d="M461.8,326.2c0,43.3,0,86.6,0,130c0,2.3,0.1,4.7-0.1,7c-0.6,6.9-3.7,10.3-10.5,10.3c-20.2,0.2-40.5,0.2-60.7,0
		c-7-0.1-10.3-3.7-10.8-10.7c-0.1-1.8-0.1-3.7-0.1-5.5c0-64.2,0.1-128.4-0.1-192.7c0-6.5,1.9-11.3,6.6-15.9
		c21.7-21.3,43.1-43,64.7-64.4c1.6-1.6,4.5-4.6,6-3.1c1.9,1.9,3.7,4.4,4.8,7c0.4,0.9,0.3,4.3,0.3,6.5
		C461.8,238.6,461.8,282.4,461.8,326.2L461.8,326.2z"></path><path d="M345.9,290.5c0.2,3.7,0.4,5.6,0.4,7.6c0,53.8,0,107.7,0,161.5c0,11.5-2.6,14.1-14.3,14.1
		c-18.1,0-36.1,0.1-54.2,0c-10.1,0-12.8-2.7-12.8-12.8c0-28.2-0.1-56.5,0.1-84.7c0-3.2,1-7.3,3.2-9.4c23.7-23.8,47.8-47.3,71.7-70.8
		C341.6,294.4,343.2,293,345.9,290.5L345.9,290.5z"></path><path d="M151.4,320.8c1.4,1.3,2.9,2.6,4.3,4c11.7,11.7,23.6,23.3,35.1,35.2c9.4,9.7,20.6,16,34,17.8
		c5.4,0.8,7.3,3.1,7.2,8.5c-0.2,23.9-0.1,47.8-0.1,71.7c0,2.3-0.2,4.7-0.6,7c-1.1,5.5-4,8.5-9.6,8.5c-20.7,0.2-41.5,0.2-62.2-0.1
		c-6.5-0.1-9.6-3.7-9.7-10.4c-0.2-11.7-0.1-23.4-0.1-35.1c0-33.3,0-66.5,0-99.8c0-2.3,0.2-4.5,0.4-6.8
		C150.5,321.1,150.9,321,151.4,320.8L151.4,320.8z"></path><path d="M115.9,320.8c0.3,3.2,0.5,5.1,0.5,7c0,43.8,0,87.6,0,131.4c0,11.8-2.7,14.5-14.5,14.5c-17.7,0-35.4,0-53.2,0
		c-11.3,0-14.5-3.1-14.5-14.2c-0.1-23.2,0-46.5,0-69.7c0-7.1,0.4-7.5,7.3-8.9c12.4-2.5,22.6-8.9,31.4-17.7
		c12.5-12.5,25.1-25.1,37.6-37.6C112,324.2,113.4,323,115.9,320.8L115.9,320.8z"></path></g></symbol><symbol id="icon-checkmark-circle" viewBox="0 0 512 512"><path d="M236.4,0.1c-1.6,0.3-7.3,1-12.5,1.5c-21.8,2.5-48,9.6-70.1,19.1C95,46,46,95.1,20.7,153.9
	c-9.3,21.6-15.9,46-19.4,70.1c-1.7,12.5-1.7,51.6,0,64.1c8.2,58.3,33,108.9,73.4,149.3c29.3,29.3,63.7,50.4,103.4,63.1
	c26.8,8.5,47.3,11.6,77.9,11.6s51.1-3.1,77.9-11.6c56.1-17.9,102.3-52.9,135.5-102.2c21.9-32.6,35.5-69,41.3-110.1
	c1.7-12.5,1.7-51.6,0-64.1c-8.2-58.3-33-108.9-73.4-149.3C397.8,35.3,348.2,10.4,291.6,2C282.1,0.5,242.9-0.7,236.4,0.1z
	 M288.1,42.1c46.4,7.2,87.4,27.9,120.7,61.2c33.6,33.6,53.9,74.1,61.3,121.7c1.2,8.1,1.8,17.4,1.8,31.1c0,13.7-0.6,23-1.8,31
	c-7.3,47.7-27.7,88.2-61.3,121.8s-74.1,53.9-121.7,61.3c-15.8,2.5-46.4,2.5-62.1,0c-47.7-7.3-88.2-27.7-121.8-61.3
	s-53.9-74.1-61.3-121.8c-2.5-15.7-2.5-46.3,0-62.1c7.3-47.6,27.7-88.1,61.3-121.7c37.1-37.1,80.5-57.2,136.3-63.1
	C247.5,39.5,277.9,40.6,288.1,42.1z"></path><path d="M329.3,184.6L223,281.3l-40.2-36.6c-9-8.2-22.9-7.5-31.1,1.5c-8.2,9-7.5,22.9,1.5,31.1l55.1,50.1
	c8.4,7.6,21.2,7.6,29.6,0l121.1-110.1c9-8.2,9.6-22.1,1.5-31.1C352.2,177.1,338.3,176.5,329.3,184.6z"></path></symbol><symbol id="icon-checkmark" viewBox="0 0 10 10"><g id="Artboard1" transform="matrix(1,0,0,1.25138,0,0.222088)"><rect x="0" y="-0.177" width="10" height="7.991" style="fill:none;"></rect><g transform="matrix(1,0,0,0.799115,-0.000187458,1.02112)"><path d="M8.327,0.26L3.5,4.649C3.5,4.649 1.673,2.987 1.673,2.987C1.264,2.616 0.631,2.646 0.26,3.055C-0.111,3.463 -0.081,4.096 0.327,4.467L2.827,6.74C3.209,7.087 3.791,7.087 4.173,6.74L9.673,1.74C10.081,1.369 10.111,0.736 9.74,0.327C9.369,-0.081 8.736,-0.111 8.327,0.26Z"></path></g></g></symbol><symbol id="icon-chevron" viewBox="0 0 20 32"><title>chevron-left-solid</title><path d="M2.144 14.944l12.16-12.16c0.576-0.576 1.536-0.576 2.112 0l1.44 1.44c0.576 0.576 0.576 1.504 0 2.112l-9.632 9.664 9.632 9.664c0.576 0.608 0.576 1.536 0 2.144l-1.44 1.408c-0.576 0.576-1.536 0.576-2.112 0l-12.16-12.16c-0.576-0.576-0.576-1.536 0-2.112z"></path></symbol><symbol id="icon-close" viewBox="0 0 10 10"><g id="Artboard1" transform="matrix(0.941462,0,0,0.904724,-2.8617,-3.21412)"><rect x="3.04" y="3.553" width="9.814" height="10.219" style="fill:none;"></rect><g transform="matrix(1.06218,0,0,1.10531,-0.532301,-0.732545)"><path d="M11.576,4.076L3.576,12.076C3.342,12.31 3.342,12.69 3.576,12.924C3.81,13.158 4.19,13.158 4.424,12.924L12.424,4.924C12.658,4.69 12.658,4.31 12.424,4.076C12.19,3.842 11.81,3.842 11.576,4.076Z"></path></g><g transform="matrix(1.06218,0,0,1.10531,-0.532301,-0.732545)"><path d="M3.576,4.924L11.576,12.924C11.81,13.158 12.19,13.158 12.424,12.924C12.658,12.69 12.658,12.31 12.424,12.076L4.424,4.076C4.19,3.842 3.81,3.842 3.576,4.076C3.342,4.31 3.342,4.69 3.576,4.924Z"></path></g></g></symbol><symbol id="icon-columns" viewBox="0 0 24 24"><g id="Artboard1" transform="matrix(1.00734,0,0,1.11098,0,-1.01523)"><rect x="0" y="0.914" width="23.825" height="21.603" style="fill:none;"></rect><g transform="matrix(0.992717,0,0,0.900104,5.45994e-05,1.13886)"><path d="M2.594,5.355L10.037,5.355" style="fill:none;fill-rule:nonzero;"></path></g><g transform="matrix(0.992717,0,0,0.900104,5.45994e-05,1.13886)"><path d="M2.594,6.105L10.037,6.105C10.451,6.105 10.787,5.769 10.787,5.355C10.787,4.941 10.451,4.605 10.037,4.605L2.594,4.605C2.18,4.605 1.844,4.941 1.844,5.355C1.844,5.769 2.18,6.105 2.594,6.105Z"></path></g><g transform="matrix(0.992717,0,0,0.900104,5.45994e-05,1.13886)"><path d="M2.594,9.618L10.037,9.618" style="fill:none;fill-rule:nonzero;"></path></g><g transform="matrix(0.992717,0,0,0.900104,5.45994e-05,1.13886)"><path d="M2.594,10.368L10.037,10.368C10.451,10.368 10.787,10.032 10.787,9.618C10.787,9.204 10.451,8.868 10.037,8.868L2.594,8.868C2.18,8.868 1.844,9.204 1.844,9.618C1.844,10.032 2.18,10.368 2.594,10.368Z"></path></g><g transform="matrix(0.992717,0,0,0.900104,5.45994e-05,1.13886)"><path d="M2.594,13.882L10.037,13.882" style="fill:none;fill-rule:nonzero;"></path></g><g transform="matrix(0.992717,0,0,0.900104,5.45994e-05,1.13886)"><path d="M2.594,14.632L10.037,14.632C10.451,14.632 10.787,14.296 10.787,13.882C10.787,13.468 10.451,13.132 10.037,13.132L2.594,13.132C2.18,13.132 1.844,13.468 1.844,13.882C1.844,14.296 2.18,14.632 2.594,14.632Z"></path></g><g transform="matrix(0.992717,0,0,0.900104,5.45994e-05,1.13886)"><path d="M2.594,18.145L10.037,18.145" style="fill:none;fill-rule:nonzero;"></path></g><g transform="matrix(0.992717,0,0,0.900104,5.45994e-05,1.13886)"><path d="M2.594,18.895L10.037,18.895C10.451,18.895 10.787,18.559 10.787,18.145C10.787,17.731 10.451,17.395 10.037,17.395L2.594,17.395C2.18,17.395 1.844,17.731 1.844,18.145C1.844,18.559 2.18,18.895 2.594,18.895Z"></path></g><g transform="matrix(0.992717,0,0,0.900104,5.45994e-05,1.13886)"><path d="M13.963,5.355L21.406,5.355" style="fill:none;fill-rule:nonzero;"></path></g><g transform="matrix(0.992717,0,0,0.900104,5.45994e-05,1.13886)"><path d="M13.963,6.105L21.406,6.105C21.82,6.105 22.156,5.769 22.156,5.355C22.156,4.941 21.82,4.605 21.406,4.605L13.963,4.605C13.549,4.605 13.213,4.941 13.213,5.355C13.213,5.769 13.549,6.105 13.963,6.105Z"></path></g><g transform="matrix(0.992717,0,0,0.900104,5.45994e-05,1.13886)"><path d="M13.963,9.618L21.406,9.618" style="fill:none;fill-rule:nonzero;"></path></g><g transform="matrix(0.992717,0,0,0.900104,5.45994e-05,1.13886)"><path d="M13.963,10.368L21.406,10.368C21.82,10.368 22.156,10.032 22.156,9.618C22.156,9.204 21.82,8.868 21.406,8.868L13.963,8.868C13.549,8.868 13.213,9.204 13.213,9.618C13.213,10.032 13.549,10.368 13.963,10.368Z"></path></g><g transform="matrix(0.992717,0,0,0.900104,5.45994e-05,1.13886)"><path d="M13.963,13.882L21.406,13.882" style="fill:none;fill-rule:nonzero;"></path></g><g transform="matrix(0.992717,0,0,0.900104,5.45994e-05,1.13886)"><path d="M13.963,14.632L21.406,14.632C21.82,14.632 22.156,14.296 22.156,13.882C22.156,13.468 21.82,13.132 21.406,13.132L13.963,13.132C13.549,13.132 13.213,13.468 13.213,13.882C13.213,14.296 13.549,14.632 13.963,14.632Z"></path></g><g transform="matrix(0.992717,0,0,0.900104,5.45994e-05,1.13886)"><path d="M13.963,18.145L21.406,18.145" style="fill:none;fill-rule:nonzero;"></path></g><g transform="matrix(0.992717,0,0,0.900104,5.45994e-05,1.13886)"><path d="M13.963,18.895L21.406,18.895C21.82,18.895 22.156,18.559 22.156,18.145C22.156,17.731 21.82,17.395 21.406,17.395L13.963,17.395C13.549,17.395 13.213,17.731 13.213,18.145C13.213,18.559 13.549,18.895 13.963,18.895Z"></path></g></g></symbol><symbol id="icon-copy" viewBox="0 0 479.559443 479.518246"><g transform="translate(-15.940557,496.018246) rotate(-360.00) scale(0.095238,-0.095238)" stroke="none"><path d="M611 5193 c-204 -50 -389 -240 -431 -445 -17 -78 -17 -2855 0 -2934
33 -162 161 -325 314 -398 103 -50 162 -62 326 -62 l136 1 0 194 0 194 -101 0
c-55 0 -122 5 -149 12 -64 16 -121 74 -137 138 -18 69 -18 2708 0 2777 16 64
73 121 137 137 69 18 2708 18 2777 0 64 -16 122 -73 138 -137 7 -27 12 -92 12
-144 l0 -95 194 0 195 0 0 131 c-1 157 -12 217 -60 320 -72 150 -238 281 -400
314 -86 18 -2876 15 -2951 -3z"></path><path d="M1822 4020 c-95 -18 -224 -89 -301 -165 -79 -80 -147 -207 -166 -311
-15 -86 -15 -2802 0 -2888 17 -92 84 -224 151 -296 63 -68 141 -119 245 -159
l71 -28 1454 0 1454 0 71 28 c193 75 312 197 378 386 l24 69 0 1449 0 1449
-28 71 c-40 104 -91 182 -159 245 -72 67 -204 134 -296 151 -79 14 -2821 13
-2898 -1z m2869 -403 c52 -22 75 -44 98 -94 19 -40 20 -105 20 -1423 0 -1318
-1 -1383 -20 -1423 -23 -50 -46 -72 -98 -94 -34 -14 -200 -16 -1417 -16 -1315
0 -1381 1 -1421 20 -50 23 -72 46 -94 98 -14 34 -16 200 -16 1415 0 1215 2
1381 16 1415 22 52 44 75 94 98 40 19 106 20 1421 20 1217 0 1383 -2 1417 -16z"></path></g></symbol><symbol id="icon-cron-refresh" viewBox="0 0 24 24"><g id="Artboard1" transform="matrix(1.20574,0,0,1.06602,0.468625,0.312203)"><g transform="matrix(1.13741,0,0,1.28649,-0.388319,-0.293254)"><g><g transform="matrix(1,0,0,1,-3.9043,-3.7627)"><path d="M21.404,12.513C21.404,7.682 17.485,3.763 12.654,3.763C7.824,3.763 3.904,7.682 3.904,12.513C3.904,17.343 7.824,21.263 12.654,21.263C17.485,21.263 21.404,17.343 21.404,12.513ZM19.904,12.513C19.904,16.515 16.657,19.763 12.654,19.763C8.652,19.763 5.404,16.515 5.404,12.513C5.404,8.51 8.652,5.263 12.654,5.263C16.657,5.263 19.904,8.51 19.904,12.513Z" style="fill-rule:nonzero;"></path></g><g transform="matrix(1,0,0,1,-3.9043,-3.7627)"><path d="M7.812,11.851L7.812,12.52C7.815,13.483 8.111,14.421 8.658,15.213C9.206,16.004 9.981,16.61 10.881,16.952C11.781,17.294 12.763,17.355 13.698,17.128C14.101,17.03 14.348,16.624 14.25,16.222C14.152,15.82 13.746,15.572 13.344,15.67C12.703,15.826 12.03,15.784 11.414,15.55C10.798,15.316 10.267,14.9 9.892,14.359C9.517,13.817 9.314,13.174 9.312,12.516L9.312,11.851C9.312,11.437 8.976,11.101 8.562,11.101C8.148,11.101 7.812,11.437 7.812,11.851ZM17.312,13.172L17.312,12.503C17.309,11.541 17.014,10.604 16.467,9.813C15.92,9.022 15.146,8.416 14.247,8.074C13.349,7.732 12.367,7.67 11.433,7.897C11.031,7.994 10.783,8.4 10.881,8.802C10.978,9.205 11.384,9.452 11.786,9.354C12.426,9.199 13.098,9.242 13.714,9.476C14.329,9.71 14.859,10.125 15.234,10.666C15.608,11.208 15.81,11.849 15.812,12.507L15.812,13.172C15.812,13.586 16.148,13.922 16.562,13.922C16.976,13.922 17.312,13.586 17.312,13.172Z" style="fill-rule:nonzero;"></path></g><g transform="matrix(1,0,0,1,-3.9043,-3.7627)"><path d="M16.846,12.074L16.481,12.581L16.089,12.062C15.84,11.731 15.37,11.665 15.039,11.914C14.708,12.163 14.642,12.633 14.891,12.964L15.895,14.297C16.039,14.488 16.264,14.599 16.502,14.596C16.741,14.593 16.964,14.478 17.103,14.284L18.063,12.951C18.305,12.615 18.228,12.146 17.893,11.904C17.557,11.662 17.088,11.739 16.846,12.074ZM7.068,12.074C6.903,12.303 6.881,12.604 7.009,12.855C7.137,13.105 7.395,13.263 7.677,13.263L9.641,13.263C9.925,13.263 10.185,13.102 10.312,12.847C10.439,12.593 10.411,12.289 10.24,12.062L9.236,10.728C9.092,10.538 8.867,10.427 8.629,10.429C8.39,10.432 8.167,10.548 8.028,10.741L7.068,12.074Z" style="fill-rule:nonzero;"></path></g></g></g></g></symbol><symbol id="icon-cron-speedup" viewBox="0 0 24 24"><g transform="matrix(1.37143,0,0,1.37143,-5.48571,-4.11429)"><g transform="matrix(1,0,0,1,0.75,-0.25)"><path d="M20.75,12C20.75,7.169 16.831,3.25 12,3.25C7.169,3.25 3.25,7.169 3.25,12C3.25,16.831 7.169,20.75 12,20.75C16.831,20.75 20.75,16.831 20.75,12ZM19.25,12C19.25,16.003 16.003,19.25 12,19.25C7.997,19.25 4.75,16.003 4.75,12C4.75,7.997 7.997,4.75 12,4.75C16.003,4.75 19.25,7.997 19.25,12Z"></path></g><g transform="matrix(1,0,0,1,0.75,-0.25)"><path d="M10.117,16.313C9.973,16.312 9.832,16.275 9.707,16.203C9.426,16.044 9.251,15.734 9.251,15.399L9.251,8.602C9.251,8.265 9.426,7.956 9.707,7.797C9.835,7.723 9.98,7.686 10.128,7.688C10.275,7.689 10.419,7.731 10.545,7.808L16.354,11.285C16.476,11.361 16.575,11.466 16.645,11.591C16.714,11.716 16.75,11.857 16.75,12C16.75,12.143 16.714,12.283 16.645,12.408C16.575,12.533 16.476,12.639 16.354,12.714L10.545,16.192C10.416,16.27 10.268,16.312 10.117,16.313Z" style="fill-rule:nonzero;"></path></g></g><g id="Artboard1" transform="matrix(0.932783,0,0,1.04917,3.41627,2.63916)"><rect x="-3.662" y="-2.515" width="25.729" height="22.875" style="fill:none;"></rect></g></symbol><symbol id="icon-cron-stop" viewBox="0 0 20 20"><g transform="matrix(1.14286,0,0,1.14286,-1.42857,-1.42857)"><path d="M18.75,10C18.75,5.169 14.831,1.25 10,1.25C5.169,1.25 1.25,5.169 1.25,10C1.25,14.831 5.169,18.75 10,18.75C14.831,18.75 18.75,14.831 18.75,10ZM17.25,10C17.25,14.003 14.003,17.25 10,17.25C5.997,17.25 2.75,14.003 2.75,10C2.75,5.997 5.997,2.75 10,2.75C14.003,2.75 17.25,5.997 17.25,10Z"></path></g><g transform="matrix(1.14286,0,0,1.14286,-1.42857,-1.42857)"><path d="M6.267,7.267L6.267,12.733C6.267,13.285 6.714,13.733 7.267,13.733L12.733,13.733C13.285,13.733 13.733,13.285 13.733,12.733L13.733,7.267C13.733,6.714 13.285,6.267 12.733,6.267C12.733,6.267 7.267,6.267 7.267,6.267C6.714,6.267 6.267,6.714 6.267,7.267Z"></path></g></symbol><symbol id="icon-disable" viewBox="0 0 48 48"><g id="Artboard1" transform="matrix(0.773476,0,0,0.755889,-322.483,-314.284)"><g transform="matrix(0.12313,-1.92952e-16,-1.88564e-16,-0.125995,-149.289,515.156)"><g transform="matrix(0.10252,0,9.94007e-32,0.10252,4574.93,261.222)"><path d="M1955,3490C1890,3457 1854,3369 1874,3290C1878,3270 1977,3163 2166,2974L2451,2688L2166,2402C1977,2213 1878,2106 1874,2086C1862,2041 1874,1969 1899,1934C1939,1877 2043,1850 2103,1881C2116,1887 2253,2018 2407,2172L2688,2451L2974,2166C3163,1977 3270,1878 3290,1874C3335,1862 3407,1874 3442,1899C3499,1939 3526,2043 3495,2103C3489,2116 3358,2253 3204,2407L2924,2688L3204,2969C3358,3123 3489,3260 3495,3273C3526,3333 3499,3437 3442,3477C3407,3502 3335,3514 3290,3502C3270,3498 3163,3399 2974,3210L2688,2925L2407,3204C2253,3358 2116,3489 2103,3495C2070,3512 1995,3509 1955,3490Z"></path></g><g transform="matrix(0.0939423,0,3.70537e-32,0.0939423,4598.01,284.118)"><path d="M2483,5370C2466,5367 2407,5360 2352,5354C2124,5328 1849,5253 1617,5154C1001,4889 487,4375 222,3759C125,3533 55,3277 19,3024C1,2893 1,2483 19,2352C105,1741 365,1211 788,788C1095,481 1456,260 1872,127C2153,38 2368,5 2688,5C3008,5 3223,38 3504,127C4092,315 4576,681 4924,1198C5154,1540 5296,1921 5357,2352C5375,2483 5375,2893 5357,3024C5271,3635 5011,4165 4588,4588C4174,5002 3654,5262 3061,5351C2961,5366 2551,5379 2483,5370ZM3024,4930C3510,4855 3940,4638 4289,4289C4641,3937 4854,3513 4931,3014C4944,2929 4950,2832 4950,2688C4950,2544 4944,2447 4931,2363C4854,1863 4641,1439 4289,1087C3937,735 3513,522 3014,445C2848,419 2528,419 2363,445C1863,522 1439,735 1087,1087C735,1439 522,1863 445,2363C419,2528 419,2848 445,3014C522,3513 735,3937 1087,4289C1476,4678 1931,4888 2515,4950C2599,4958 2917,4946 3024,4930Z"></path></g></g></g></symbol><symbol id="icon-dollar" viewBox="0 0 24 24"><path class="st0" d="M12,21.1c-0.4,0-0.8-0.3-0.8-0.8V3.6c0-0.4,0.3-0.8,0.8-0.8s0.8,0.3,0.8,0.8v16.8C12.8,20.8,12.4,21.1,12,21.1z
	"></path><path class="st0" d="M13.8,18H7.8c-0.4,0-0.8-0.3-0.8-0.8s0.3-0.8,0.8-0.8h5.9c0.4,0,0.9-0.2,1.2-0.5c0.3-0.4,0.5-0.8,0.5-1.3
	s-0.2-1-0.5-1.3c-0.3-0.3-0.7-0.5-1.2-0.5h-3.5c-0.9,0-1.7-0.4-2.3-1c-0.6-0.6-0.9-1.5-0.9-2.4S7.4,7.7,8,7c0.6-0.6,1.4-1,2.3-1h5.2
	c0.4,0,0.8,0.3,0.8,0.8c0,0.4-0.3,0.8-0.8,0.8h-5.2C9.8,7.5,9.4,7.7,9.1,8C8.7,8.4,8.6,8.9,8.6,9.4s0.2,1,0.5,1.3
	c0.3,0.3,0.7,0.5,1.2,0.5h3.5c0.9,0,1.7,0.4,2.3,1c0.6,0.6,0.9,1.5,0.9,2.4S16.6,16.4,16,17C15.4,17.6,14.6,18,13.8,18z"></path></symbol><symbol id="icon-edit-post" viewBox="0 0 368.000000 459.500000"><metadata>Created by Potrace Professional 1.1m</metadata><g transform="translate(-72.000000,486.000000) rotate(-360.00) scale(0.095238,-0.095238)" fill="currentColor" stroke="none"><path d="M1087 5083 c-82 -29 -114 -48 -178 -107 -69 -63 -105 -121 -133 -210
-19 -62 -20 -135 -20 -2078 0 -1976 0 -2015 21 -2081 39 -127 136 -236 263
-296 l68 -33 1580 0 1580 0 71 34 c124 58 221 170 261 298 19 62 20 126 20
1798 l0 1734 -480 481 -481 480 -1260 0 c-1187 -1 -1263 -2 -1312 -20z m2814
-704 l483 -483 -486 0 -485 0 0 483 c0 265 1 483 2 483 2 0 220 -218 486 -483z
m-441 -925 l168 -168 -599 -598 -598 -598 -171 170 -171 171 596 596 c328 327
599 596 602 596 3 0 81 -76 173 -169z m-1371 -1369 c89 -90 160 -165 157 -167
-7 -7 -486 -164 -489 -161 -5 5 158 490 164 490 4 0 79 -73 168 -162z"></path></g></symbol><symbol id="icon-edit" viewBox="0 0 511.939123 511.872616"><g transform="translate(0.032886,511.872616) rotate(-360.00) scale(0.095238,-0.095238)"><path d="M4107 5359 c-105 -28 -157 -66 -358 -263 l-195 -191 672 -673 672
-673 200 202 c221 223 246 261 270 398 10 56 9 89 0 147 -26 150 -30 155 -462
589 -258 259 -411 404 -443 422 -104 57 -242 73 -356 42z"></path><path d="M1969 3314 l-1376 -1370 672 -673 672 -673 1373 1373 1373 1373 -669
670 -670 669 -1375 -1369z"></path><path d="M212 932 c-117 -412 -213 -762 -212 -778 0 -73 83 -154 156 -154 27
0 1511 416 1524 427 5 5 -1240 1253 -1249 1253 -3 0 -102 -337 -219 -748z"></path></g></symbol><symbol id="icon-error" viewBox="0 0 16 16"><path d="M2 8C2 4.688 4.688 2 8 2C11.312 2 14 4.688 14 8C14 11.312 11.312 14 8 14C4.688 14 2 11.312 2 8ZM8.13794 8.69231C8.39318 8.69231 8.6001 8.48539 8.6001 8.23015V5.46216C8.6001 5.20692 8.39318 5 8.13794 5H7.86226C7.60701 5 7.4001 5.20692 7.4001 5.46216L7.4001 8.23015C7.4001 8.48539 7.60701 8.69231 7.86226 8.69231H8.13794ZM8.13794 11C8.39318 11 8.6001 10.7931 8.6001 10.5378V10.0775C8.6001 9.8223 8.39318 9.61538 8.13794 9.61538H7.86226C7.60701 9.61538 7.4001 9.8223 7.4001 10.0775V10.5378C7.4001 10.7931 7.60701 11 7.86226 11H8.13794Z"></path></symbol><symbol id="icon-export" viewBox="0 0 20 21"><path d="M7.5,17.25L4.167,17.25C3.924,17.25 3.69,17.153 3.519,16.982C3.518,16.981 3.518,16.981 3.518,16.981C3.347,16.81 3.25,16.576 3.25,16.333L3.25,4.667C3.25,4.424 3.347,4.19 3.518,4.018C3.518,4.018 3.518,4.018 3.518,4.018C3.69,3.847 3.924,3.75 4.167,3.75C4.167,3.75 7.5,3.75 7.5,3.75C7.914,3.75 8.25,3.414 8.25,3C8.25,2.586 7.914,2.25 7.5,2.25L4.167,2.25C3.526,2.25 2.911,2.505 2.458,2.958C2.005,3.411 1.75,4.026 1.75,4.667C1.75,4.667 1.75,16.333 1.75,16.333C1.75,16.974 2.005,17.589 2.458,18.042C2.911,18.495 3.526,18.75 4.167,18.75L7.5,18.75C7.914,18.75 8.25,18.414 8.25,18C8.25,17.586 7.914,17.25 7.5,17.25Z"></path><path d="M13.864,15.197L18.03,11.03C18.171,10.89 18.25,10.699 18.25,10.5C18.25,10.301 18.171,10.11 18.03,9.97L13.864,5.803C13.571,5.51 13.096,5.51 12.803,5.803C12.51,6.096 12.51,6.571 12.803,6.864L16.439,10.5C16.439,10.5 12.803,14.136 12.803,14.136C12.51,14.429 12.51,14.904 12.803,15.197C13.096,15.49 13.571,15.49 13.864,15.197Z"></path><path d="M17.5,9.75L7.5,9.75C7.086,9.75 6.75,10.086 6.75,10.5C6.75,10.914 7.086,11.25 7.5,11.25L17.5,11.25C17.914,11.25 18.25,10.914 18.25,10.5C18.25,10.086 17.914,9.75 17.5,9.75Z"></path></symbol><symbol id="icon-eye-solid" viewBox="0 0 512 512"><path d="M263.3,128.8c0.9,0,1.8,0,2.7,0c13.6,0,26.9,0.6,40.3,3.2c0.8,0.1,1.7,0.3,2.6,0.4c25.6,4.5,50.7,13.7,74.1,24.8
	c0.8,0.4,1.7,0.8,2.6,1.2c38,18.1,72.2,43.3,103.2,71.5c0.9,0.9,1.9,1.7,2.9,2.6c19.7,17.9,19.7,17.9,20.9,24.4
	c0.1,5.9-0.2,9.9-4.1,14.5c-0.7,0.7-1.4,1.4-2.2,2.2c-0.5,0.5-1,1-1.5,1.5c-5.8,6-11.7,11.9-18,17.3c-2.2,1.9-4.4,3.9-6.5,5.8
	c-58.5,52.7-136.1,93.4-216.2,93.1c-0.9,0-1.8,0-2.7,0c-13.6,0-26.9-0.6-40.3-3.2c-1.3-0.2-1.3-0.2-2.6-0.4
	c-25.6-4.5-50.7-13.7-74.1-24.8c-0.8-0.4-1.7-0.8-2.6-1.2c-38-18.1-72.2-43.3-103.2-71.5c-0.9-0.9-1.9-1.7-2.9-2.6
	C16,269.6,16,269.6,14.8,263.1c-0.1-5.9,0.2-9.9,4.1-14.5c1.1-1.1,1.1-1.1,2.2-2.2c0.5-0.5,1-1,1.5-1.5c5.8-6,11.7-11.9,18-17.3
	c2.2-1.9,4.4-3.9,6.5-5.8C105.6,169.2,183.3,128.4,263.3,128.8z M193.8,186.3c-0.6,0.5-1.2,1-1.8,1.6c-13.7,12.7-22.8,31-27.3,48.9
	c-0.2,0.7-0.4,1.4-0.5,2.2c-5.9,25.9-0.2,51.9,13,74.3c3.8,5.9,8.1,11.4,12.7,16.7c0.8,0.9,0.8,0.9,1.6,1.8
	c12.7,13.7,31,22.8,48.9,27.3c0.7,0.2,1.4,0.4,2.2,0.5c25.9,5.9,51.9,0.2,74.3-13c5.9-3.8,11.4-8.1,16.7-12.7c0.6-0.5,1.2-1,1.8-1.6
	c13.7-12.7,22.8-31,27.3-48.9c0.2-0.7,0.4-1.4,0.5-2.2c5.9-25.9,0.2-51.9-13-74.3c-3.8-5.9-8.1-11.4-12.7-16.7
	c-0.5-0.6-1-1.2-1.6-1.8c-12.7-13.7-31-22.8-48.9-27.3c-0.7-0.2-1.4-0.4-2.2-0.5C251.4,153,218.9,164.2,193.8,186.3z"></path><path d="M296.7,195c0,0.6,0,1.3,0,1.9c-1.1,1-2.3,2-3.5,2.9c-4.6,3.9-7.4,8.2-10.1,13.6c-0.5,1-0.5,1-1,1.9
	c-3.7,8.8-3.3,21.2-0.3,30.1c5.2,11.9,13.1,20.1,25.1,25.2c4.9,1.8,9.3,2,14.4,2c1.1,0,1.1,0,2.2,0c4.1,0,8-0.3,12-1.1
	c-1.1,18.4-12,33.1-25,45.3c-17,14.2-36.9,17.1-58.4,15.8c-16.4-1.9-30.5-10.7-41.7-22.3c-0.7-0.7-1.4-1.4-2.2-2.1
	c-12.6-12.8-17.5-30.9-17.7-48.4c0.2-19.3,6.3-37.1,20.2-50.8c0.9-0.8,1.7-1.7,2.6-2.5c0.7-0.7,1.4-1.4,2.1-2.2
	C235.5,184.6,272.6,180.4,296.7,195z"></path></symbol><symbol id="icon-eye" viewBox="0 0 512 512"><path d="M258.92,395.41c-64.35-.59-118.39-20.65-165.51-59.7-20-16.58-40.22-32.9-60.27-49.42-15.71-12.94-19.99-31.75-10.78-48.12,2-3.56,4.6-7.11,7.74-9.67,27.33-22.34,54.11-45.44,82.48-66.38,35.23-26,75.56-40.15,119.22-44.07,70.44-6.32,132.74,13.66,187.2,58.61,19.65,16.22,39.44,32.27,59.16,48.4,15.47,12.66,20.45,29.84,12.69,46.11-2.3,4.82-5.69,9.63-9.77,13.01-26.43,21.86-52.53,44.21-80.01,64.68-35.4,26.37-75.82,40.93-119.84,45.11-8.44,.8-16.93,1.11-22.31,1.45Zm-103.97-139.6c.16,56.79,45.17,101.4,102.15,101.24,55.42-.16,100.13-45.74,99.96-101.9-.17-55.4-45.56-100.38-101.13-100.22-56,.17-101.14,45.26-100.98,100.88Zm211.13,78.08c4.88-3.14,10.07-5.88,14.57-9.48,26.41-21.08,52.69-42.33,78.93-63.62,4.18-3.39,3.71-6.63-1.12-10.57-18.59-15.14-37.06-30.44-55.86-45.3-10.56-8.34-21.68-15.98-32.59-23.87-1.3-.94-2.92-1.46-4.68-2.33,32.28,52.03,32.17,103.24,.77,155.17Zm-220.9-.5c.33-.27,.67-.54,1.01-.81-31.69-51.07-31.63-102.19-.38-153.51-5.94,3.35-11.66,6.51-16.69,10.53-25.6,20.46-51.04,41.12-76.48,61.78-3.82,3.1-3.67,6.26,.32,9.52,23.84,19.47,47.62,39.01,71.63,58.26,6.5,5.21,13.71,9.52,20.59,14.24Z"></path><path d="M272.66,194.44c-8.67,17.07-7.42,30.62,3.65,41.55,10.91,10.79,24.64,11.97,40.82,3.53,7.25,17.16,1.85,48.79-21.63,66.95-24.14,18.67-58.3,18.01-81.08-1.73-23.38-20.26-29.28-53.6-14.19-80.25,14.4-25.42,46.17-38.68,72.43-30.06Z"></path></symbol><symbol id="icon-import" viewBox="0 0 20 21"><path d="M15.083,12.166L15.083,14.944C15.083,15.114 15.016,15.276 14.896,15.396C14.776,15.516 14.614,15.583 14.444,15.583C14.444,15.583 4.722,15.583 4.722,15.583C4.553,15.583 4.39,15.516 4.27,15.396C4.151,15.276 4.083,15.114 4.083,14.944C4.083,14.944 4.083,12.166 4.083,12.166C4.083,11.753 3.747,11.416 3.333,11.416C2.919,11.417 2.583,11.753 2.583,12.167L2.583,14.944C2.583,15.511 2.809,16.056 3.21,16.457C3.21,16.457 3.21,16.457 3.21,16.457C3.611,16.858 4.155,17.083 4.722,17.083L14.444,17.083C15.012,17.083 15.556,16.858 15.957,16.457C15.957,16.457 15.957,16.457 15.957,16.457C16.358,16.055 16.583,15.511 16.583,14.944L16.583,12.167C16.583,11.753 16.247,11.417 15.833,11.416C15.419,11.416 15.083,11.753 15.083,12.166Z"></path><path d="M13.586,6.775L10.114,3.303C9.973,3.162 9.782,3.083 9.583,3.083C9.384,3.083 9.194,3.162 9.053,3.303L5.581,6.775C5.288,7.068 5.288,7.543 5.581,7.836C5.873,8.128 6.349,8.128 6.641,7.836L9.583,4.894C9.583,4.894 12.525,7.836 12.525,7.836C12.818,8.128 13.293,8.128 13.586,7.836C13.879,7.543 13.879,7.068 13.586,6.775Z"></path><path d="M8.833,3.833L8.833,12.167C8.833,12.581 9.169,12.917 9.583,12.917C9.997,12.917 10.333,12.581 10.333,12.167L10.333,3.833C10.333,3.419 9.997,3.083 9.583,3.083C9.169,3.083 8.833,3.419 8.833,3.833Z"></path></symbol><symbol id="icon-info" viewBox="0 0 15 15"><g><path d="M6.75,3.75h1.5v1.5h-1.5v-1.5Zm0,3h1.5v4.5h-1.5V6.75ZM7.5,0C3.36,0,0,3.36,0,7.5s3.36,7.5,7.5,7.5,7.5-3.36,7.5-7.5S11.64,0,7.5,0Zm0,13.5c-3.31,0-6-2.69-6-6S4.19,1.5,7.5,1.5s6,2.69,6,6-2.69,6-6,6Z"></path></g></symbol><symbol id="icon-lab1" viewBox="0 0 60 61"><g id="Artboard1" transform="matrix(1.08012,0,0,0.98868,-8.55701,-3.89075)"><rect x="7.922" y="3.935" width="55.06" height="61.081" style="fill:none;"></rect><g transform="matrix(0.925826,0,0,1.01145,5.52556,0.102636)"><path d="M40.738,5.692C40.738,4.722 41.525,3.935 42.495,3.935L60.059,3.935C61.029,3.935 61.815,4.722 61.815,5.692C61.815,6.662 61.029,7.448 60.059,7.448L42.495,7.448C41.525,7.448 40.738,6.662 40.738,5.692ZM44.25,7.448L58.301,7.448L58.301,48.184C58.304,48.266 58.305,48.349 58.305,48.431C58.305,48.514 58.304,48.596 58.301,48.678L58.301,49.142L58.27,49.142C57.913,52.688 54.92,55.457 51.279,55.457C47.639,55.457 44.645,52.688 44.289,49.142L44.25,49.142L44.25,7.448Z" style="fill:rgb(223,234,253);"></path><path d="M55.477,25.732L47.074,25.732L47.074,48.219C47.074,50.539 48.955,52.42 51.276,52.42C53.596,52.42 55.477,50.539 55.477,48.219C55.477,48.199 55.477,48.18 55.477,48.161L55.477,25.732Z" style="fill:rgb(37,112,237);"></path><path d="M24.495,19.463C26.015,16.7 29.985,16.7 31.505,19.463L52.74,58.072C54.206,60.738 52.277,64 49.235,64L6.765,64C3.723,64 1.794,60.738 3.26,58.072L24.495,19.463Z" style="fill:rgb(223,234,253);fill-rule:nonzero;"></path><path d="M26.232,21.521C26.984,20.102 29.016,20.102 29.767,21.521L49.355,58.519C50.06,59.851 49.094,61.455 47.587,61.455L8.413,61.455C6.905,61.455 5.94,59.851 6.645,58.519L26.232,21.521Z" style="fill:rgb(37,112,237);fill-rule:nonzero;"></path><path d="M28,18L45.406,49.911L10.594,49.911L28,18Z" style="fill:rgb(223,234,253);fill-rule:nonzero;"></path><rect x="20.363" y="8" width="15.273" height="19.091" style="fill:rgb(223,234,253);"></rect><path d="M39.455,9.909C39.455,8.855 38.6,8 37.546,8L18.455,8C17.401,8 16.546,8.855 16.546,9.909C16.546,10.963 17.401,11.818 18.455,11.818L37.546,11.818C38.6,11.818 39.455,10.963 39.455,9.909Z" style="fill:rgb(223,234,253);"></path></g></g></symbol><symbol id="icon-lab2" viewBox="0 0 60 61"><g id="Artboard1" transform="matrix(1.05155,0,0,0.986778,-5.83861,-3.88327)"><rect x="5.552" y="3.935" width="56.263" height="61.079" style="fill:none;"></rect><g transform="matrix(0.950974,0,0,1.0134,2.96526,0.0766947)"><path d="M40.738,5.692C40.738,4.722 41.525,3.935 42.495,3.935L60.059,3.935C61.029,3.935 61.815,4.722 61.815,5.692C61.815,6.662 61.029,7.448 60.059,7.448L42.495,7.448C41.525,7.448 40.738,6.662 40.738,5.692ZM44.25,7.448L58.301,7.448L58.301,48.184C58.304,48.266 58.305,48.349 58.305,48.431C58.305,48.514 58.304,48.596 58.301,48.678L58.301,49.142L58.27,49.142C57.913,52.688 54.92,55.457 51.279,55.457C47.639,55.457 44.645,52.688 44.289,49.142L44.25,49.142L44.25,7.448Z" style="fill:rgb(223,234,253);"></path></g><g transform="matrix(0.950974,0,0,1.0134,2.96526,0.0766947)"><path d="M55.477,16.493L47.074,16.493L47.074,48.219C47.074,50.539 48.955,52.42 51.276,52.42C53.596,52.42 55.477,50.539 55.477,48.219C55.477,48.199 55.477,48.18 55.477,48.161L55.477,16.493Z" style="fill:rgb(37,112,237);"></path></g><g transform="matrix(0.950974,0,0,1.0134,2.96526,0.0766947)"><path d="M24.495,19.463C26.015,16.7 29.985,16.7 31.505,19.463L52.74,58.072C54.206,60.738 52.277,64 49.235,64L6.765,64C3.723,64 1.794,60.738 3.26,58.072L24.495,19.463Z" style="fill:rgb(223,234,253);fill-rule:nonzero;"></path></g><g transform="matrix(0.950974,0,0,1.0134,2.96526,0.0766947)"><path d="M26.232,21.521C26.984,20.102 29.016,20.102 29.767,21.521L49.355,58.519C50.06,59.851 49.094,61.455 47.587,61.455L8.413,61.455C6.905,61.455 5.94,59.851 6.645,58.519L26.232,21.521Z" style="fill:rgb(37,112,237);fill-rule:nonzero;"></path></g><g transform="matrix(0.950974,0,0,1.0134,2.96526,0.0766947)"><path d="M28,18L42.5,43L13.5,43L28,18Z" style="fill:rgb(223,234,253);fill-rule:nonzero;"></path></g><g transform="matrix(0.950974,0,0,1.0134,2.96526,0.0766947)"><rect x="20.363" y="8" width="15.273" height="19.091" style="fill:rgb(223,234,253);"></rect></g><g transform="matrix(0.950974,0,0,1.0134,2.96526,0.0766947)"><path d="M39.455,9.909C39.455,8.855 38.6,8 37.546,8L18.455,8C17.401,8 16.546,8.855 16.546,9.909C16.546,10.963 17.401,11.818 18.455,11.818L37.546,11.818C38.6,11.818 39.455,10.963 39.455,9.909Z" style="fill:rgb(223,234,253);"></path></g><g transform="matrix(0.950974,0,0,1.0134,2.96526,0.0766947)"><circle cx="22" cy="44" r="4" style="fill:rgb(37,112,237);"></circle></g><g transform="matrix(0.950974,0,0,1.0134,2.96526,0.0766947)"><circle cx="33" cy="37" r="3" style="fill:rgb(37,112,237);"></circle></g><g transform="matrix(0.950974,0,0,1.0134,2.96526,0.0766947)"><circle cx="26" cy="28" r="2" style="fill:rgb(37,112,237);"></circle></g></g></symbol><symbol id="icon-legend-marker-disabled" viewBox="0 0 512 512"><path class="st0" d="M169.5,395.7l226.2-226.2c17.8-17.8,20.4-44.3,5.7-58.9c-14.7-14.7-41.1-12.1-59,5.7L116.3,342.4
	c-17.8,17.8-20.4,44.3-5.7,59C125.3,416.1,151.7,413.5,169.5,395.7z"></path><path class="st0" d="M116.3,169.5l226.2,226.2c17.8,17.8,44.3,20.4,58.9,5.7c14.7-14.7,12.1-41.1-5.7-59L169.6,116.3
	c-17.8-17.8-44.3-20.4-59-5.7S98.5,151.7,116.3,169.5z"></path></symbol><symbol id="icon-legend-marker" viewBox="0 0 512 512"><path d="M56.9,326h398.2c31.4,0,56.9-31.4,56.9-70s-25.5-70.1-56.9-70.1H56.9C25.5,185.9,0,217.3,0,256S25.5,326,56.9,326z"></path></symbol><symbol id="icon-link-disabled" viewBox="0 0 9.57 9.57"><path d="M3.91,7.13h-1.17C1.45,7.13,.4,6.08,.4,4.78S1.45,2.43,2.75,2.43c.33,0,.6,.27,.6,.6s-.27,.6-.6,.6c-.63,0-1.15,.52-1.15,1.15s.52,1.15,1.15,1.15h1.17c.33,0,.6,.27,.6,.6s-.27,.6-.6,.6Zm3.9-.31c-.19,0-.38-.09-.5-.26-.19-.27-.12-.65,.16-.83,.31-.22,.5-.57,.5-.95,0-.63-.52-1.15-1.15-1.15h-1.17c-.33,0-.6-.27-.6-.6s.27-.6,.6-.6h1.17c1.3,0,2.35,1.05,2.35,2.35,0,.78-.38,1.5-1.02,1.94-.1,.07-.22,.1-.34,.1Z"></path><path d="M6.51,5.38h-.32c-.33,0-.6-.27-.6-.6s.27-.6,.6-.6h.32c.33,0,.6,.27,.6,.6s-.27,.6-.6,.6Z"></path><path d="M4.69,5.38h-1.59c-.33,0-.6-.27-.6-.6s.27-.6,.6-.6h1.59c.33,0,.6,.27,.6,.6s-.27,.6-.6,.6Z"></path><path d="M8.97,9.57c-.15,0-.31-.06-.42-.18L.18,1.02C-.06,.79-.06,.41,.18,.18,.41-.06,.79-.06,1.02,.18L9.39,8.55c.23,.23,.23,.61,0,.85-.12,.12-.27,.18-.42,.18Z"></path></symbol><symbol id="icon-link" viewBox="0 0 24 24"><g transform="matrix(.77835 0 0 .75327 -374.233 -361.499)"><path fill="none" d="M480.801 479.907H511.635V511.768H480.801z"></path><clipPath id="a"><path d="M480.801 479.907H511.635V511.768H480.801z"></path></clipPath><g clip-path="url(#a)"><path fill-rule="nonzero" d="M3921 5360c-181-31-343-96-503-202-91-60-174-138-613-574-279-278-514-518-522-533-22-42-18-70 14-102 27-27 36-29 151-36 159-9 279-31 418-75 62-21 126-37 143-37 25 0 89 59 408 376 305 303 391 382 442 408 210 110 455 80 622-75 191-178 226-475 81-692-19-30-311-328-648-663-651-649-652-650-795-692-31-9-95-16-142-16-139 0-243 39-364 138-117 97-230 130-346 103-256-59-355-337-201-560 69-100 307-262 473-322 197-71 345-89 556-68 205 21 309 51 469 134 46 24 122 72 168 106 111 82 1343 1322 1415 1424 350 496 290 1175-140 1605-96 96-248 203-358 252-230 104-494 140-728 101Z" transform="matrix(.12236 0 0 -.12643 -136.142 523.601) matrix(.0469 0 0 .0469 5042 93.495)"></path><path fill-rule="nonzero" d="M2189 3632c-178-30-390-120-542-231-120-87-1323-1296-1409-1415-304-422-315-992-29-1425 83-125 227-269 352-352 446-295 1030-274 1460 52 79 59 1052 1025 1072 1064 22 43 18 70-16 104-26 26-38 30-88 31-160 0-401 42-533 94-106 42-77 62-492-351-205-204-397-386-426-404-198-125-481-96-655 66-173 161-212 452-90 665 35 62 1200 1234 1292 1300 128 93 302 123 458 80 83-23 137-54 231-131 94-76 148-96 261-96 76 0 97 4 148 29 78 38 147 113 176 192 32 82 27 207-9 277-70 136-302 308-524 389-142 52-274 74-439 72-80 0-169-5-198-10Z" transform="matrix(.12236 0 0 -.12643 -136.142 523.601) matrix(.0469 0 0 .0469 5042 93.495)"></path></g></g></symbol><symbol id="icon-loading-input" viewBox="0 0 24 24"><g id="Artboard1" transform="matrix(1.5,0,0,1.5,0,0)"><rect x="0" y="0" width="16" height="16" style="fill:none;"></rect><g transform="matrix(1.07199,0,0,1.06667,-0.535994,-0.533323)"><path d="M15.417,6.888C15.167,5.219 14.361,3.684 13.131,2.529L13.131,2.529C11.9,1.375 10.316,0.67 8.635,0.527L8.635,0.527C6.953,0.384 5.273,0.812 3.865,1.743C2.458,2.673 1.405,4.05 0.877,5.653L0.877,5.653C0.349,7.256 0.376,8.989 0.956,10.574L0.956,10.574C1.535,12.159 2.631,13.502 4.068,14.387C5.505,15.271 7.198,15.646 8.874,15.449C10.55,15.252 12.11,14.496 13.303,13.303C13.596,13.011 13.596,12.535 13.303,12.243C13.011,11.95 12.535,11.95 12.243,12.243C11.288,13.197 10.04,13.802 8.699,13.959L8.699,13.959C7.358,14.116 6.004,13.817 4.855,13.109L4.854,13.109C3.705,12.402 2.828,11.327 2.364,10.059C1.901,8.791 1.879,7.404 2.301,6.122C2.724,4.84 3.566,3.738 4.692,2.994C5.819,2.25 7.163,1.907 8.508,2.022C9.853,2.136 11.12,2.7 12.105,3.624C13.089,4.547 13.734,5.775 13.934,7.11C13.995,7.52 14.377,7.802 14.787,7.741C15.196,7.679 15.478,7.297 15.417,6.888Z" style="fill:rgb(190,194,201);"></path></g></g></symbol><symbol id="icon-minus-circle" viewBox="0 0 18.17 18.17"><path d="M9.08,18.17C4.07,18.17,0,14.09,0,9.08S4.07,0,9.08,0s9.08,4.07,9.08,9.08-4.07,9.08-9.08,9.08ZM9.08,1.5C4.9,1.5,1.5,4.9,1.5,9.08s3.4,7.58,7.58,7.58,7.58-3.4,7.58-7.58S13.27,1.5,9.08,1.5Z"></path><path d="M12.42,9.83H5.75c-.41,0-.75-.34-.75-.75s.34-.75,.75-.75h6.67c.41,0,.75,.34,.75,.75s-.34,.75-.75,.75Z"></path></symbol><symbol id="icon-minus" viewBox="0 0 10 10"><g id="Artboard1" transform="matrix(1.09364,0,0,1.69636,0,1.71473)"><rect x="0" y="-1.011" width="9.144" height="5.895" style="fill:none;"></rect><g transform="matrix(0.914374,0,0,0.589498,0.457187,1.05242)"><path d="M1,2.5L8,2.5C8.552,2.5 9,2.052 9,1.5C9,0.948 8.552,0.5 8,0.5L1,0.5C0.448,0.5 0,0.948 0,1.5C-0,2.052 0.448,2.5 1,2.5Z"></path></g></g></symbol><symbol id="icon-overlay-no-diff" viewBox="0 0 31 29"><path d="M17,1C17,0.448 16.552,0 16,0C15.448,0 15,0.448 15,1L15,28C15,28.552 15.448,29 16,29C16.552,29 17,28.552 17,28L17,1Z"></path><path d="M30.687,13.161C30.864,13.352 30.864,13.648 30.687,13.839L25.867,19.056C25.558,19.391 25,19.172 25,18.717L25,8.283C25,7.828 25.558,7.609 25.867,7.944L30.687,13.161Z" style="fill-rule:nonzero;"></path><path d="M0.313,13.839C0.136,13.648 0.136,13.352 0.313,13.161L5.133,7.944C5.442,7.609 6,7.828 6,8.283L6,18.717C6,19.172 5.442,19.391 5.133,19.056L0.313,13.839Z" style="fill-rule:nonzero;"></path></symbol><symbol id="icon-overlay-with-diff" viewBox="0 0 31 29"><path d="M17,1C17,0.448 16.552,0 16,0C15.448,0 15,0.448 15,1L15,28C15,28.552 15.448,29 16,29C16.552,29 17,28.552 17,28L17,1Z"></path><g transform="matrix(-3.82857e-16,1,-1,-3.82857e-16,25,-13)"><path d="M21,7C21,6.448 20.552,6 20,6C19.448,6 19,6.448 19,7L19,14C19,14.552 19.448,15 20,15C20.552,15 21,14.552 21,14L21,7Z"></path></g><g transform="matrix(-3.82857e-16,1,-1,-3.82857e-16,36,-8)"><path d="M24,15C24,14.448 23.552,14 23,14C22.448,14 22,14.448 22,15L22,22C22,22.552 22.448,23 23,23C23.552,23 24,22.552 24,22L24,15Z"></path></g><g transform="matrix(-3.82857e-16,1,-1,-3.82857e-16,42,7.10543e-15)"><path d="M23,22C23,21.448 22.552,21 22,21C21.448,21 21,21.448 21,22L21,29C21,29.552 21.448,30 22,30C22.552,30 23,29.552 23,29L23,22Z"></path></g><path d="M30.687,13.161C30.864,13.352 30.864,13.648 30.687,13.839L25.867,19.056C25.558,19.391 25,19.172 25,18.717L25,8.283C25,7.828 25.558,7.609 25.867,7.944L30.687,13.161Z" style="fill-rule:nonzero;"></path><path d="M0.313,13.839C0.136,13.648 0.136,13.352 0.313,13.161L5.133,7.944C5.442,7.609 6,7.828 6,8.283L6,18.717C6,19.172 5.442,19.391 5.133,19.056L0.313,13.839Z" style="fill-rule:nonzero;"></path></symbol><symbol id="icon-overview-about" viewBox="0 0 24 24"><g id="Artboard1" transform="matrix(1.0486,0,0,1.36585,0.973699,0.347628)"><rect x="-0.929" y="-0.255" width="22.888" height="17.571" style="fill:none;"></rect><clipPath id="_clip1"><rect x="-0.929" y="-0.255" width="22.888" height="17.571"></rect></clipPath><g clip-path="url(#_clip1)"><g transform="matrix(1.39317,0,0,1.06957,-2.02328,-1.22522)"><path d="M6.019,5.585L1.847,6.227C0.842,6.381 0.432,7.608 1.143,8.335L4.199,11.465L3.482,15.863C3.314,16.893 4.407,17.663 5.32,17.158L9,15.123L12.68,17.158C13.593,17.663 14.686,16.893 14.518,15.863L13.801,11.466L16.857,8.335C17.568,7.608 17.158,6.381 16.153,6.227L11.981,5.585L10.132,1.645C9.682,0.687 8.318,0.687 7.868,1.646L7.868,1.645L6.019,5.585ZM9,2.765L10.68,6.343C10.857,6.72 11.21,6.985 11.621,7.048L15.444,7.635L12.64,10.508C12.363,10.792 12.237,11.19 12.3,11.582L12.955,15.596L9.605,13.743C9.228,13.535 8.772,13.535 8.395,13.743L5.045,15.596L5.7,11.582C5.763,11.191 5.638,10.792 5.36,10.508L2.556,7.635L6.379,7.048C6.79,6.985 7.143,6.72 7.32,6.344L9,2.765Z"></path></g></g></g></symbol><symbol id="icon-overview-faq" viewBox="0 0 24 24"><g id="Artboard1" transform="matrix(0.99214,0,0,0.99214,1.02329,0.319102)"><rect x="-1.031" y="-0.322" width="24.19" height="24.19" style="fill:none;"></rect><clipPath id="_clip1"><rect x="-1.031" y="-0.322" width="24.19" height="24.19"></rect></clipPath><g clip-path="url(#_clip1)"><g transform="matrix(1.38229,0,0,1.38229,-1.37697,-0.667261)"><path d="M1.766,13.677L1.042,16.297C1.016,16.386 1,16.477 0.993,16.569L0.991,16.614C0.989,16.762 1.016,16.909 1.071,17.047L1.071,17.047C1.127,17.184 1.208,17.31 1.312,17.415C1.416,17.521 1.539,17.605 1.675,17.662L1.676,17.662C1.813,17.72 1.96,17.75 2.108,17.75L2.148,17.75L2.188,17.746C2.316,17.732 2.441,17.701 2.56,17.653C2.56,17.653 5.171,16.71 5.171,16.71L5.19,16.702C5.244,16.68 5.301,16.668 5.36,16.668L5.361,16.668C5.417,16.668 5.47,16.678 5.521,16.698C5.662,16.752 6.209,16.955 6.757,17.109C7.323,17.267 8.362,17.459 9.131,17.459C13.98,17.459 17.75,13.562 17.75,8.827L17.75,8.826C17.75,8.235 17.687,7.646 17.563,7.068C16.739,3.184 13.218,0.25 8.993,0.25C4.146,0.25 0.236,4.095 0.25,8.822C0.25,10.473 0.735,12.087 1.643,13.464L1.716,13.571C1.732,13.6 1.752,13.645 1.766,13.677ZM2.676,16.016L3.242,13.967C3.333,13.635 3.208,13.157 3.018,12.825L2.875,12.609C2.145,11.494 1.75,10.172 1.75,8.821L1.75,8.82C1.738,4.911 4.987,1.75 8.993,1.75C12.49,1.75 15.414,4.165 16.096,7.381L16.096,7.381C16.198,7.857 16.25,8.341 16.25,8.827C16.25,12.738 13.136,15.959 9.131,15.959C8.493,15.959 7.631,15.796 7.161,15.664C6.673,15.528 6.186,15.346 6.06,15.298L6.06,15.298C5.838,15.212 5.602,15.168 5.364,15.168C5.106,15.167 4.85,15.218 4.612,15.318L2.676,16.016Z"></path><path d="M7.426,6.788C7.426,6.788 7.475,6.289 7.976,5.877C8.299,5.61 8.692,5.549 9.039,5.544C9.358,5.54 9.645,5.577 9.816,5.66C10.081,5.79 10.633,6.082 10.633,6.755C10.633,7.585 10.032,7.909 9.43,8.323L9.43,8.323C8.335,9.076 8.084,9.831 8.084,10.677C8.084,11.091 8.42,11.427 8.834,11.427C9.248,11.427 9.584,11.091 9.584,10.677C9.584,10.266 9.748,9.924 10.279,9.559C11.304,8.854 12.133,8.166 12.133,6.755C12.133,5.301 11.048,4.593 10.474,4.312L10.474,4.312C10.153,4.156 9.62,4.037 9.02,4.044L9.02,4.044C8.362,4.053 7.633,4.215 7.022,4.719L7.022,4.719C5.948,5.604 5.927,6.722 5.927,6.722C5.909,7.136 6.231,7.486 6.644,7.504C7.058,7.522 7.408,7.201 7.426,6.788Z"></path><path d="M8.834,13.892C9.267,13.892 9.618,13.541 9.618,13.108C9.618,12.675 9.267,12.323 8.834,12.323C8.401,12.323 8.05,12.675 8.05,13.108C8.05,13.541 8.401,13.892 8.834,13.892Z" style="fill-rule:nonzero;"></path></g></g></g></symbol><symbol id="icon-overview-integrate" viewBox="0 0 24 24"><g id="Artboard1" transform="matrix(1.35554,0,0,1.38496,0.530545,0.42705)"><rect x="-0.391" y="-0.308" width="17.705" height="17.329" style="fill:none;"></rect><g transform="matrix(1.14226,0,0,1.118,-0.676954,-0.587851)"><path d="M4.25,2.942L2.331,2.942C1.78,2.944 1.251,3.164 0.861,3.554C0.471,3.944 0.252,4.472 0.25,5.023L0.25,7.394C0.25,7.611 0.336,7.819 0.489,7.972C0.489,7.972 0.49,7.972 0.49,7.972C0.643,8.125 0.851,8.212 1.067,8.212C1.067,8.212 1.973,8.212 1.973,8.212C2.56,8.212 3.035,8.731 3.043,9.318C3.043,9.318 3.043,9.318 3.043,9.318C3.052,9.915 2.595,10.481 2,10.481L1.067,10.481C0.85,10.481 0.642,10.567 0.489,10.721C0.336,10.874 0.25,11.081 0.25,11.298L0.25,13.669C0.252,14.22 0.471,14.749 0.861,15.139C0.861,15.139 0.861,15.139 0.861,15.139C1.251,15.529 1.78,15.748 2.331,15.75L4.702,15.75C4.919,15.75 5.126,15.664 5.279,15.511C5.433,15.358 5.519,15.149 5.519,14.933C5.519,14.933 5.519,14.228 5.519,14.228C5.519,13.61 6.02,13.072 6.638,13.058C7.227,13.044 7.789,13.414 7.789,14L7.789,14.933C7.789,15.149 7.875,15.358 8.028,15.511C8.181,15.664 8.389,15.75 8.606,15.75C8.606,15.75 11,15.75 11,15.75C11.546,15.75 12.069,15.533 12.455,15.147C12.841,14.761 13.058,14.238 13.058,13.692L13.058,11.75L13.333,11.75C14.678,11.75 15.75,10.653 15.75,9.304C15.75,7.95 14.631,6.917 13.306,6.917L13.058,6.917L13.058,5C13.058,4.454 12.841,3.931 12.455,3.545C12.069,3.159 11.546,2.942 11,2.942L9.083,2.942L9.083,2.694C9.083,1.373 8.03,0.273 6.709,0.25C6.389,0.245 6.07,0.303 5.772,0.422C5.474,0.541 5.202,0.718 4.973,0.943C4.744,1.168 4.563,1.436 4.438,1.732C4.314,2.028 4.25,2.345 4.25,2.666L4.25,2.942ZM9.289,14.25L9.289,14C9.289,12.569 8.04,11.525 6.603,11.558C6.603,11.558 6.603,11.558 6.603,11.558C5.185,11.591 4.019,12.809 4.019,14.228L4.019,14.25L2.335,14.25C2.18,14.249 2.032,14.188 1.922,14.078C1.812,13.968 1.751,13.82 1.75,13.665L1.75,11.981L2,11.981C3.409,11.981 4.563,10.71 4.543,9.297C4.524,7.907 3.363,6.712 1.973,6.712L1.75,6.712L1.75,5.028C1.751,4.873 1.812,4.724 1.922,4.614C2.032,4.505 2.18,4.443 2.335,4.442C2.335,4.442 4.933,4.442 4.933,4.442C5.15,4.442 5.357,4.356 5.511,4.203C5.664,4.05 5.75,3.842 5.75,3.625C5.75,3.625 5.75,2.667 5.75,2.667C5.75,2.545 5.774,2.424 5.822,2.312C5.869,2.2 5.938,2.098 6.024,2.013C6.111,1.927 6.214,1.86 6.327,1.815C6.327,1.815 6.327,1.815 6.327,1.815C6.44,1.77 6.561,1.748 6.683,1.75C6.683,1.75 6.683,1.75 6.683,1.75C7.189,1.759 7.583,2.188 7.583,2.694L7.583,3.625C7.583,3.842 7.669,4.05 7.823,4.203C7.976,4.356 8.184,4.442 8.401,4.442C8.401,4.442 11,4.442 11,4.442C11.148,4.442 11.29,4.501 11.394,4.606C11.394,4.606 11.394,4.606 11.394,4.606C11.499,4.71 11.558,4.852 11.558,5L11.558,7.599C11.558,7.817 11.644,8.024 11.798,8.178C11.951,8.331 12.158,8.417 12.375,8.417L13.306,8.417C13.808,8.417 14.25,8.791 14.25,9.304C14.25,9.821 13.849,10.25 13.334,10.25C13.334,10.25 12.375,10.25 12.375,10.25C12.158,10.25 11.951,10.336 11.798,10.488C11.644,10.642 11.558,10.849 11.558,11.067L11.558,13.692C11.558,13.84 11.499,13.982 11.394,14.087C11.29,14.191 11.148,14.25 11,14.25L9.289,14.25Z"></path></g></g></symbol><symbol id="icon-play" viewBox="0 0 461.027954 511.581165"><g transform="translate(-25.500000,511.714172) rotate(-360.00) scale(0.095238,-0.095238)"><path d="M635 5362 c-174 -46 -298 -190 -349 -405 -17 -75 -18 -204 -18 -2269
0 -2065 1 -2194 18 -2269 67 -283 258 -437 516 -416 77 7 208 45 277 80 90 46
3678 2107 3743 2150 38 25 101 80 139 121 197 213 197 455 0 668 -38 41 -101
96 -139 121 -65 43 -3653 2104 -3743 2150 -131 67 -331 98 -444 69z"></path></g></symbol><symbol id="icon-plus" viewBox="0 0 24 24"><g id="Artboard1" transform="matrix(0.640269,0,0,0.584735,-248.54,-164.228)"><rect x="388.181" y="280.859" width="37.484" height="41.044" style="fill:none;"></rect><clipPath id="_clip1"><rect x="388.181" y="280.859" width="37.484" height="41.044"></rect></clipPath><g clip-path="url(#_clip1)"><g transform="matrix(3.25946,0,0,3.56902,-896.862,-749.123)"><g transform="matrix(1,0,0,1,393.349,287.84)"><path d="M5.901,1.5L5.901,11.5C5.901,11.914 6.237,12.25 6.651,12.25C7.065,12.25 7.401,11.914 7.401,11.5L7.401,1.5C7.401,1.086 7.065,0.75 6.651,0.75C6.237,0.75 5.901,1.086 5.901,1.5Z"></path></g><g transform="matrix(1,0,0,1,393.349,287.84)"><path d="M1.651,7.251L11.651,7.251C12.065,7.251 12.401,6.915 12.401,6.501C12.402,6.087 12.065,5.751 11.652,5.751L1.651,5.751C1.237,5.751 0.901,6.087 0.901,6.501C0.901,6.915 1.237,7.251 1.651,7.251Z"></path></g></g></g></g></symbol><symbol id="icon-refresh" viewBox="0 0 24 24"><g id="Artboard1" transform="matrix(1.20574,0,0,1.06602,0.468625,0.312203)"><g transform="matrix(1.13741,0,0,1.28649,-0.388319,-0.293254)"><g><g transform="matrix(1,0,0,1,-3.9043,-3.7627)"><path d="M21.404,12.513C21.404,7.682 17.485,3.763 12.654,3.763C7.824,3.763 3.904,7.682 3.904,12.513C3.904,17.343 7.824,21.263 12.654,21.263C17.485,21.263 21.404,17.343 21.404,12.513ZM19.904,12.513C19.904,16.515 16.657,19.763 12.654,19.763C8.652,19.763 5.404,16.515 5.404,12.513C5.404,8.51 8.652,5.263 12.654,5.263C16.657,5.263 19.904,8.51 19.904,12.513Z" style="fill-rule:nonzero;"></path></g><g transform="matrix(1,0,0,1,-3.9043,-3.7627)"><path d="M7.812,11.851L7.812,12.52C7.815,13.483 8.111,14.421 8.658,15.213C9.206,16.004 9.981,16.61 10.881,16.952C11.781,17.294 12.763,17.355 13.698,17.128C14.101,17.03 14.348,16.624 14.25,16.222C14.152,15.82 13.746,15.572 13.344,15.67C12.703,15.826 12.03,15.784 11.414,15.55C10.798,15.316 10.267,14.9 9.892,14.359C9.517,13.817 9.314,13.174 9.312,12.516L9.312,11.851C9.312,11.437 8.976,11.101 8.562,11.101C8.148,11.101 7.812,11.437 7.812,11.851ZM17.312,13.172L17.312,12.503C17.309,11.541 17.014,10.604 16.467,9.813C15.92,9.022 15.146,8.416 14.247,8.074C13.349,7.732 12.367,7.67 11.433,7.897C11.031,7.994 10.783,8.4 10.881,8.802C10.978,9.205 11.384,9.452 11.786,9.354C12.426,9.199 13.098,9.242 13.714,9.476C14.329,9.71 14.859,10.125 15.234,10.666C15.608,11.208 15.81,11.849 15.812,12.507L15.812,13.172C15.812,13.586 16.148,13.922 16.562,13.922C16.976,13.922 17.312,13.586 17.312,13.172Z" style="fill-rule:nonzero;"></path></g><g transform="matrix(1,0,0,1,-3.9043,-3.7627)"><path d="M16.846,12.074L16.481,12.581L16.089,12.062C15.84,11.731 15.37,11.665 15.039,11.914C14.708,12.163 14.642,12.633 14.891,12.964L15.895,14.297C16.039,14.488 16.264,14.599 16.502,14.596C16.741,14.593 16.964,14.478 17.103,14.284L18.063,12.951C18.305,12.615 18.228,12.146 17.893,11.904C17.557,11.662 17.088,11.739 16.846,12.074ZM7.068,12.074C6.903,12.303 6.881,12.604 7.009,12.855C7.137,13.105 7.395,13.263 7.677,13.263L9.641,13.263C9.925,13.263 10.185,13.102 10.312,12.847C10.439,12.593 10.411,12.289 10.24,12.062L9.236,10.728C9.092,10.538 8.867,10.427 8.629,10.429C8.39,10.432 8.167,10.548 8.028,10.741L7.068,12.074Z" style="fill-rule:nonzero;"></path></g></g></g></g></symbol><symbol id="icon-search-white" viewBox="0 0 24 24"><path d="M11,21C16.523,21 21,16.523 21,11C21,5.477 16.523,1 11,1C5.477,1 1,5.477 1,11C1,16.523 5.477,21 11,21ZM11,19C6.582,19 3,15.418 3,11C3,6.582 6.582,3 11,3C15.418,3 19,6.582 19,11C19,15.418 15.418,19 11,19Z"></path><path d="M22.707,21.293L18.707,17.293C18.317,16.903 17.683,16.903 17.293,17.293C16.903,17.683 16.903,18.317 17.293,18.707L21.293,22.707C21.683,23.097 22.317,23.097 22.707,22.707C23.097,22.317 23.097,21.683 22.707,21.293Z"></path></symbol><symbol id="icon-search-zoom-in" viewBox="0 0 24 24"><path d="M11,21C16.523,21 21,16.523 21,11C21,5.477 16.523,1 11,1C5.477,1 1,5.477 1,11C1,16.523 5.477,21 11,21ZM11,19C6.582,19 3,15.418 3,11C3,6.582 6.582,3 11,3C15.418,3 19,6.582 19,11C19,15.418 15.418,19 11,19Z"></path><path d="M22.707,21.293L18.707,17.293C18.317,16.903 17.683,16.903 17.293,17.293C16.903,17.683 16.903,18.317 17.293,18.707L21.293,22.707C21.683,23.097 22.317,23.097 22.707,22.707C23.097,22.317 23.097,21.683 22.707,21.293Z"></path><rect x="10" y="7" width="2" height="8"></rect><g transform="matrix(-3.82857e-16,1,-1,-3.82857e-16,25,-5)"><rect x="15" y="10" width="2" height="8"></rect></g></symbol><symbol id="icon-search-zoom-out" viewBox="0 0 24 24"><path d="M11,21C16.523,21 21,16.523 21,11C21,5.477 16.523,1 11,1C5.477,1 1,5.477 1,11C1,16.523 5.477,21 11,21ZM11,19C6.582,19 3,15.418 3,11C3,6.582 6.582,3 11,3C15.418,3 19,6.582 19,11C19,15.418 15.418,19 11,19Z"></path><path d="M22.707,21.293L18.707,17.293C18.317,16.903 17.683,16.903 17.293,17.293C16.903,17.683 16.903,18.317 17.293,18.707L21.293,22.707C21.683,23.097 22.317,23.097 22.707,22.707C23.097,22.317 23.097,21.683 22.707,21.293Z"></path><g transform="matrix(-3.82857e-16,1,-1,-3.82857e-16,25,-5)"><rect x="15" y="10" width="2" height="8"></rect></g></symbol><symbol id="icon-sort-asc" viewBox="0 0 6 8"><g transform="matrix(-1,0,0,-1,5.66667,8.16667)"><path d="M3.333,0.5L3.333,5.173L5.333,5.173L2.667,7.833L0,5.173L2,5.173L2,0.5L3.333,0.5Z" style="fill-rule:nonzero;"></path></g></symbol><symbol id="icon-sort-desc" viewBox="0 0 6 8"><g transform="matrix(-1,0,0,1,5.66667,-0.166665)"><path d="M3.333,0.5L3.333,5.173L5.333,5.173L2.667,7.833L0,5.173L2,5.173L2,0.5L3.333,0.5Z" style="fill-rule:nonzero;"></path></g></symbol><symbol id="icon-sort" viewBox="0 0 10 12"><g transform="matrix(1,0,0,1,0.333335,0)"><path d="M2.667,0L0,2.66L2,2.66L2,7.333L3.333,7.333L3.333,2.66L5.333,2.66L2.667,0ZM7.333,9.34L7.333,4.667L6,4.667L6,9.34L4,9.34L6.667,12L9.333,9.34L7.333,9.34Z" style="fill-rule:nonzero;"></path></g></symbol><symbol id="icon-stars" viewBox="0 0 17.44 17.69"><g><path d="M7.82,16.44c-.34,0-.65-.2-.78-.52l-1.8-4.26c-.09-.21-.25-.37-.46-.46L.52,9.4c-.31-.13-.52-.44-.52-.78s.2-.65,.52-.78l4.26-1.8c.21-.09,.37-.25,.46-.46L7.04,1.32c.27-.63,1.3-.63,1.57,0l1.8,4.26c.09,.21,.25,.37,.46,.46l4.26,1.8c.31,.13,.52,.44,.52,.78s-.21,.65-.52,.78l-4.26,1.8c-.21,.09-.37,.25-.46,.46l-1.8,4.26c-.13,.31-.44,.52-.78,.52ZM2.52,8.62l2.84,1.2c.57,.24,1.01,.69,1.25,1.25l1.2,2.85,1.2-2.85c.24-.57,.68-1.01,1.25-1.25l2.84-1.2-2.84-1.2c-.57-.24-1.01-.69-1.25-1.25l-1.2-2.84-1.2,2.84c-.24,.57-.69,1.01-1.25,1.25l-2.84,1.2Zm12.01,.6s0,0,0,0h0Zm-13.43,0h0s0,0,0,0Zm13.43-1.2s0,0,0,0h0Zm-13.44,0h0s0,0,0,0ZM7.22,1.9s0,0,0,0h0Zm1.2,0h0s0,0,0,0Z"></path><path d="M15,.06c.03-.08,.15-.08,.18,0l.63,1.5s.03,.04,.05,.05l1.5,.63c.08,.03,.08,.15,0,.18l-1.5,.63s-.04,.03-.05,.05l-.63,1.5c-.03,.08-.15,.08-.18,0l-.63-1.5s-.03-.04-.05-.05l-1.5-.63c-.08-.03-.08-.15,0-.18l1.5-.63s.04-.03,.05-.05L15,.06Z"></path><path d="M15,13.06c.03-.08,.15-.08,.18,0l.63,1.5s.03,.04,.05,.05l1.5,.63c.08,.03,.08,.15,0,.18l-1.5,.63s-.04,.03-.05,.05l-.63,1.5c-.03,.08-.15,.08-.18,0l-.63-1.5s-.03-.04-.05-.05l-1.5-.63c-.08-.03-.08-.15,0-.18l1.5-.63s.04-.03,.05-.05l.63-1.5Z"></path></g></symbol><symbol id="icon-table" viewBox="0 0 512 512"><g style="fill-rule:evenodd"><path d="M 511.5,77.5 C 511.5,196.167 511.5,314.833 511.5,433.5C 505.342,454.822 491.342,467.656 469.5,472C 326.833,472.667 184.167,472.667 41.5,472C 19.6579,467.656 5.65795,454.822 -0.5,433.5C -0.5,314.833 -0.5,196.167 -0.5,77.5C 5.65795,56.1777 19.6579,43.3443 41.5,39C 184.167,38.3333 326.833,38.3333 469.5,39C 491.342,43.3443 505.342,56.1777 511.5,77.5 Z M 44.5,118.5 C 80.5863,118.013 116.586,118.513 152.5,120C 154.049,121.214 155.215,122.714 156,124.5C 156.978,146.922 156.645,169.255 155,191.5C 153.833,192.667 152.667,193.833 151.5,195C 115.833,195.667 80.1667,195.667 44.5,195C 42.2739,193.773 40.7739,191.939 40,189.5C 39.3333,167.833 39.3333,146.167 40,124.5C 41.332,122.34 42.832,120.34 44.5,118.5 Z M 202.5,118.5 C 238.586,118.013 274.586,118.513 310.5,120C 312.604,122.042 313.771,124.542 314,127.5C 314.667,147.167 314.667,166.833 314,186.5C 313.786,190.438 311.953,193.272 308.5,195C 272.415,195.987 236.415,195.653 200.5,194C 198.396,191.958 197.229,189.458 197,186.5C 196.333,166.833 196.333,147.167 197,127.5C 197.339,123.47 199.173,120.47 202.5,118.5 Z M 360.5,118.5 C 395.835,118.333 431.168,118.5 466.5,119C 468.378,120.543 469.878,122.376 471,124.5C 471.667,146.167 471.667,167.833 471,189.5C 470.226,191.939 468.726,193.773 466.5,195C 430.833,195.667 395.167,195.667 359.5,195C 357.622,193.457 356.122,191.624 355,189.5C 354.333,167.833 354.333,146.167 355,124.5C 356.36,121.977 358.193,119.977 360.5,118.5 Z M 45.5,236.5 C 81.2531,236.013 116.92,236.513 152.5,238C 154.049,239.214 155.215,240.714 156,242.5C 156.667,264.167 156.667,285.833 156,307.5C 154.371,311.232 151.538,313.399 147.5,314C 113.119,314.973 78.786,314.639 44.5,313C 42.2739,311.773 40.7739,309.939 40,307.5C 39.3333,285.833 39.3333,264.167 40,242.5C 41.3597,239.977 43.193,237.977 45.5,236.5 Z M 202.5,236.5 C 237.835,236.333 273.168,236.5 308.5,237C 311.553,239.051 313.386,241.885 314,245.5C 314.667,265.167 314.667,284.833 314,304.5C 313.5,310.333 310.333,313.5 304.5,314C 271.833,314.667 239.167,314.667 206.5,314C 200.667,313.5 197.5,310.333 197,304.5C 196.333,284.833 196.333,265.167 197,245.5C 197.825,241.844 199.658,238.844 202.5,236.5 Z M 360.5,236.5 C 396.253,236.013 431.92,236.513 467.5,238C 469.049,239.214 470.215,240.714 471,242.5C 471.667,264.5 471.667,286.5 471,308.5C 468.949,311.553 466.115,313.386 462.5,314C 428.119,314.973 393.786,314.639 359.5,313C 357.274,311.773 355.774,309.939 355,307.5C 354.333,285.833 354.333,264.167 355,242.5C 356.36,239.977 358.193,237.977 360.5,236.5 Z M 45.5,354.5 C 81.2284,354.02 116.895,354.52 152.5,356C 154.487,357.319 155.654,359.152 156,361.5C 156.667,382.833 156.667,404.167 156,425.5C 155.027,429.406 152.527,431.573 148.5,432C 114.833,432.667 81.1667,432.667 47.5,432C 43.9798,431.496 41.4798,429.663 40,426.5C 39.3333,404.5 39.3333,382.5 40,360.5C 41.3597,357.977 43.193,355.977 45.5,354.5 Z M 203.5,354.5 C 238.168,354.333 272.835,354.5 307.5,355C 311.232,356.629 313.399,359.462 314,363.5C 314.667,383.5 314.667,403.5 314,423.5C 313.13,428.37 310.297,431.203 305.5,432C 270.786,432.973 236.119,432.64 201.5,431C 198.819,428.806 197.319,425.973 197,422.5C 196.333,402.833 196.333,383.167 197,363.5C 197.719,359.374 199.886,356.374 203.5,354.5 Z M 361.5,354.5 C 396.92,354.013 432.253,354.513 467.5,356C 469.049,357.214 470.215,358.714 471,360.5C 471.667,382.5 471.667,404.5 471,426.5C 469.52,429.663 467.02,431.496 463.5,432C 429.833,432.667 396.167,432.667 362.5,432C 358.473,431.573 355.973,429.406 355,425.5C 354.333,404.167 354.333,382.833 355,361.5C 356.018,357.985 358.185,355.652 361.5,354.5 Z"></path></g></symbol><symbol id="icon-trash" viewBox="0 0 17 19"><path style="fill-rule:evenodd;clip-rule:evenodd;stroke-linejoin:round;stroke-miterlimit:2" d="M4.167 3.333H.75a.75.75 0 0 0 0 1.5h.917V15.75a2.415 2.415 0 0 0 2.417 2.416h8.333a2.413 2.413 0 0 0 2.417-2.416V4.833h.916a.75.75 0 0 0 0-1.5h-3.416v-.917A2.42 2.42 0 0 0 9.917 0H6.584a2.417 2.417 0 0 0-2.417 2.416v.917zm9.167 1.5H3.167V15.75a.92.92 0 0 0 .268.648h.001a.914.914 0 0 0 .648.268h8.333a.917.917 0 0 0 .917-.916V4.833zM5.833 8.25v5a.75.75 0 0 0 1.5 0v-5a.75.75 0 0 0-1.5 0zm3.334 0v5a.75.75 0 0 0 1.5 0v-5a.75.75 0 0 0-1.5 0zm1.667-4.917v-.917a.917.917 0 0 0-.917-.916H6.584a.918.918 0 0 0-.917.916v.917h5.167z"></path></symbol></svg>